<mxfile host="Electron" agent="Mozilla/5.0 (Windows NT 10.0; Win64; x64) AppleWebKit/537.36 (KHTML, like Gecko) draw.io/26.0.16 Chrome/132.0.6834.196 Electron/34.2.0 Safari/537.36" version="26.0.16">
  <diagram id="R2lEEEUBdFMjLlhIrx00" name="Page-1">
    <mxGraphModel dx="3500" dy="-2451" grid="0" gridSize="10" guides="1" tooltips="1" connect="1" arrows="1" fold="1" page="1" pageScale="1" pageWidth="3300" pageHeight="4681" background="#FFFFFF" math="0" shadow="0" extFonts="Permanent Marker^https://fonts.googleapis.com/css?family=Permanent+Marker">
      <root>
        <mxCell id="0" />
        <mxCell id="1" parent="0" />
        <mxCell id="37HL_in9zZdYbBOrax-n-2" value="PRODUCT" style="shape=table;startSize=30;container=1;collapsible=1;childLayout=tableLayout;fixedRows=1;rowLines=0;fontStyle=1;align=center;resizeLast=1;labelBackgroundColor=none;fillColor=#F2CC8F;strokeColor=#E07A5F;fontColor=#393C56;fontSize=14;" parent="1" vertex="1">
          <mxGeometry x="1693.05" y="6419.54" width="253.5" height="160" as="geometry" />
        </mxCell>
        <mxCell id="37HL_in9zZdYbBOrax-n-3" value="" style="shape=partialRectangle;collapsible=0;dropTarget=0;pointerEvents=0;fillColor=none;points=[[0,0.5],[1,0.5]];portConstraint=eastwest;top=0;left=0;right=0;bottom=1;labelBackgroundColor=none;strokeColor=#E07A5F;fontColor=#393C56;fontSize=14;" parent="37HL_in9zZdYbBOrax-n-2" vertex="1">
          <mxGeometry y="30" width="253.5" height="26" as="geometry" />
        </mxCell>
        <mxCell id="37HL_in9zZdYbBOrax-n-4" value="PK" style="shape=partialRectangle;overflow=hidden;connectable=0;fillColor=none;top=0;left=0;bottom=0;right=0;fontStyle=1;labelBackgroundColor=none;strokeColor=#E07A5F;fontColor=#393C56;fontSize=14;" parent="37HL_in9zZdYbBOrax-n-3" vertex="1">
          <mxGeometry width="30" height="26" as="geometry">
            <mxRectangle width="30" height="26" as="alternateBounds" />
          </mxGeometry>
        </mxCell>
        <mxCell id="37HL_in9zZdYbBOrax-n-5" value="Product_ID" style="shape=partialRectangle;overflow=hidden;connectable=0;fillColor=none;top=0;left=0;bottom=0;right=0;align=left;spacingLeft=6;fontStyle=5;labelBackgroundColor=none;strokeColor=#E07A5F;fontColor=#393C56;fontSize=14;" parent="37HL_in9zZdYbBOrax-n-3" vertex="1">
          <mxGeometry x="30" width="223.5" height="26" as="geometry">
            <mxRectangle width="223.5" height="26" as="alternateBounds" />
          </mxGeometry>
        </mxCell>
        <mxCell id="37HL_in9zZdYbBOrax-n-6" value="" style="shape=partialRectangle;collapsible=0;dropTarget=0;pointerEvents=0;fillColor=none;points=[[0,0.5],[1,0.5]];portConstraint=eastwest;top=0;left=0;right=0;bottom=0;labelBackgroundColor=none;strokeColor=#E07A5F;fontColor=#393C56;fontSize=14;" parent="37HL_in9zZdYbBOrax-n-2" vertex="1">
          <mxGeometry y="56" width="253.5" height="104" as="geometry" />
        </mxCell>
        <mxCell id="37HL_in9zZdYbBOrax-n-7" value="" style="shape=partialRectangle;overflow=hidden;connectable=0;fillColor=none;top=0;left=0;bottom=0;right=0;labelBackgroundColor=none;strokeColor=#E07A5F;fontColor=#393C56;fontSize=14;" parent="37HL_in9zZdYbBOrax-n-6" vertex="1">
          <mxGeometry width="30" height="104" as="geometry">
            <mxRectangle width="30" height="104" as="alternateBounds" />
          </mxGeometry>
        </mxCell>
        <mxCell id="37HL_in9zZdYbBOrax-n-8" value="Product_Name&#xa;Price&#xa;Origin&#xa;Brand&#xa;Motorcycle_Types&#xa;" style="shape=partialRectangle;overflow=hidden;connectable=0;fillColor=none;top=0;left=0;bottom=0;right=0;align=left;spacingLeft=5;labelBackgroundColor=none;strokeColor=#E07A5F;fontColor=#393C56;fontSize=14;" parent="37HL_in9zZdYbBOrax-n-6" vertex="1">
          <mxGeometry x="30" width="223.5" height="104" as="geometry">
            <mxRectangle width="223.5" height="104" as="alternateBounds" />
          </mxGeometry>
        </mxCell>
        <mxCell id="37HL_in9zZdYbBOrax-n-9" value="MOTORCYCLE" style="shape=table;startSize=30;container=1;collapsible=1;childLayout=tableLayout;fixedRows=1;rowLines=0;fontStyle=1;align=center;resizeLast=1;labelBackgroundColor=none;fillColor=#F2CC8F;strokeColor=#E07A5F;fontColor=#393C56;fontSize=14;" parent="1" vertex="1">
          <mxGeometry x="1867.8" y="6786.69" width="204" height="178" as="geometry" />
        </mxCell>
        <mxCell id="37HL_in9zZdYbBOrax-n-10" value="" style="shape=partialRectangle;collapsible=0;dropTarget=0;pointerEvents=0;fillColor=none;points=[[0,0.5],[1,0.5]];portConstraint=eastwest;top=0;left=0;right=0;bottom=1;labelBackgroundColor=none;strokeColor=#E07A5F;fontColor=#393C56;fontSize=14;" parent="37HL_in9zZdYbBOrax-n-9" vertex="1">
          <mxGeometry y="30" width="204" height="58" as="geometry" />
        </mxCell>
        <mxCell id="37HL_in9zZdYbBOrax-n-11" value="PK" style="shape=partialRectangle;overflow=hidden;connectable=0;fillColor=none;top=0;left=0;bottom=0;right=0;fontStyle=1;labelBackgroundColor=none;strokeColor=#E07A5F;fontColor=#393C56;fontSize=14;" parent="37HL_in9zZdYbBOrax-n-10" vertex="1">
          <mxGeometry width="30" height="58" as="geometry">
            <mxRectangle width="30" height="58" as="alternateBounds" />
          </mxGeometry>
        </mxCell>
        <mxCell id="37HL_in9zZdYbBOrax-n-12" value="MProduct_ID&#xa;VIN&#xa;Engine_Number" style="shape=partialRectangle;overflow=hidden;connectable=0;fillColor=none;top=0;left=0;bottom=0;right=0;align=left;spacingLeft=6;fontStyle=5;labelBackgroundColor=none;strokeColor=#E07A5F;fontColor=#393C56;fontSize=14;" parent="37HL_in9zZdYbBOrax-n-10" vertex="1">
          <mxGeometry x="30" width="174" height="58" as="geometry">
            <mxRectangle width="174" height="58" as="alternateBounds" />
          </mxGeometry>
        </mxCell>
        <mxCell id="37HL_in9zZdYbBOrax-n-13" value="" style="shape=partialRectangle;collapsible=0;dropTarget=0;pointerEvents=0;fillColor=none;points=[[0,0.5],[1,0.5]];portConstraint=eastwest;top=0;left=0;right=0;bottom=0;labelBackgroundColor=none;strokeColor=#E07A5F;fontColor=#393C56;fontSize=14;" parent="37HL_in9zZdYbBOrax-n-9" vertex="1">
          <mxGeometry y="88" width="204" height="90" as="geometry" />
        </mxCell>
        <mxCell id="37HL_in9zZdYbBOrax-n-14" value="" style="shape=partialRectangle;overflow=hidden;connectable=0;fillColor=none;top=0;left=0;bottom=0;right=0;labelBackgroundColor=none;strokeColor=#E07A5F;fontColor=#393C56;fontSize=14;" parent="37HL_in9zZdYbBOrax-n-13" vertex="1">
          <mxGeometry width="30" height="90" as="geometry">
            <mxRectangle width="30" height="90" as="alternateBounds" />
          </mxGeometry>
        </mxCell>
        <mxCell id="37HL_in9zZdYbBOrax-n-15" value="Engine_Displacement&#xa;VersionÂ &#xa;Color" style="shape=partialRectangle;overflow=hidden;connectable=0;fillColor=none;top=0;left=0;bottom=0;right=0;align=left;spacingLeft=6;labelBackgroundColor=none;strokeColor=#E07A5F;fontColor=#393C56;verticalAlign=top;fontSize=14;" parent="37HL_in9zZdYbBOrax-n-13" vertex="1">
          <mxGeometry x="30" width="174" height="90" as="geometry">
            <mxRectangle width="174" height="90" as="alternateBounds" />
          </mxGeometry>
        </mxCell>
        <mxCell id="37HL_in9zZdYbBOrax-n-16" value="SPARE_PART" style="shape=table;startSize=30;container=1;collapsible=1;childLayout=tableLayout;fixedRows=1;rowLines=0;fontStyle=1;align=center;resizeLast=1;labelBackgroundColor=none;fillColor=#F2CC8F;strokeColor=#E07A5F;fontColor=#393C56;fontSize=14;" parent="1" vertex="1">
          <mxGeometry x="1556.3" y="6790.16" width="253.5" height="88" as="geometry" />
        </mxCell>
        <mxCell id="37HL_in9zZdYbBOrax-n-17" value="" style="shape=partialRectangle;collapsible=0;dropTarget=0;pointerEvents=0;fillColor=none;points=[[0,0.5],[1,0.5]];portConstraint=eastwest;top=0;left=0;right=0;bottom=1;labelBackgroundColor=none;strokeColor=#E07A5F;fontColor=#393C56;fontSize=14;" parent="37HL_in9zZdYbBOrax-n-16" vertex="1">
          <mxGeometry y="30" width="253.5" height="26" as="geometry" />
        </mxCell>
        <mxCell id="37HL_in9zZdYbBOrax-n-18" value="PK" style="shape=partialRectangle;overflow=hidden;connectable=0;fillColor=none;top=0;left=0;bottom=0;right=0;fontStyle=1;labelBackgroundColor=none;strokeColor=#E07A5F;fontColor=#393C56;fontSize=14;" parent="37HL_in9zZdYbBOrax-n-17" vertex="1">
          <mxGeometry width="30" height="26" as="geometry">
            <mxRectangle width="30" height="26" as="alternateBounds" />
          </mxGeometry>
        </mxCell>
        <mxCell id="37HL_in9zZdYbBOrax-n-19" value="SProduct_ID" style="shape=partialRectangle;overflow=hidden;connectable=0;fillColor=none;top=0;left=0;bottom=0;right=0;align=left;spacingLeft=6;fontStyle=5;labelBackgroundColor=none;strokeColor=#E07A5F;fontColor=#393C56;fontSize=14;" parent="37HL_in9zZdYbBOrax-n-17" vertex="1">
          <mxGeometry x="30" width="223.5" height="26" as="geometry">
            <mxRectangle width="223.5" height="26" as="alternateBounds" />
          </mxGeometry>
        </mxCell>
        <mxCell id="37HL_in9zZdYbBOrax-n-20" value="" style="shape=partialRectangle;collapsible=0;dropTarget=0;pointerEvents=0;fillColor=none;points=[[0,0.5],[1,0.5]];portConstraint=eastwest;top=0;left=0;right=0;bottom=0;labelBackgroundColor=none;strokeColor=#E07A5F;fontColor=#393C56;fontSize=14;" parent="37HL_in9zZdYbBOrax-n-16" vertex="1">
          <mxGeometry y="56" width="253.5" height="32" as="geometry" />
        </mxCell>
        <mxCell id="37HL_in9zZdYbBOrax-n-21" value="" style="shape=partialRectangle;overflow=hidden;connectable=0;fillColor=none;top=0;left=0;bottom=0;right=0;labelBackgroundColor=none;strokeColor=#E07A5F;fontColor=#393C56;fontSize=14;" parent="37HL_in9zZdYbBOrax-n-20" vertex="1">
          <mxGeometry width="30" height="32" as="geometry">
            <mxRectangle width="30" height="32" as="alternateBounds" />
          </mxGeometry>
        </mxCell>
        <mxCell id="37HL_in9zZdYbBOrax-n-22" value="Material" style="shape=partialRectangle;overflow=hidden;connectable=0;fillColor=none;top=0;left=0;bottom=0;right=0;align=left;spacingLeft=5;labelBackgroundColor=none;strokeColor=#E07A5F;fontColor=#393C56;fontSize=14;" parent="37HL_in9zZdYbBOrax-n-20" vertex="1">
          <mxGeometry x="30" width="223.5" height="32" as="geometry">
            <mxRectangle width="223.5" height="32" as="alternateBounds" />
          </mxGeometry>
        </mxCell>
        <mxCell id="37HL_in9zZdYbBOrax-n-23" value="DETAILED_MOTORCYCLE_DELIVERY_NOTE" style="shape=table;startSize=24;container=1;collapsible=1;childLayout=tableLayout;fixedRows=1;rowLines=0;fontStyle=1;align=center;resizeLast=1;labelBackgroundColor=none;fillColor=#F2CC8F;strokeColor=#E07A5F;fontColor=#393C56;fontSize=14;" parent="1" vertex="1">
          <mxGeometry x="2519.8" y="6587.72" width="300" height="160" as="geometry" />
        </mxCell>
        <mxCell id="37HL_in9zZdYbBOrax-n-24" value="" style="shape=partialRectangle;collapsible=0;dropTarget=0;pointerEvents=0;fillColor=none;points=[[0,0.5],[1,0.5]];portConstraint=eastwest;top=0;left=0;right=0;bottom=1;labelBackgroundColor=none;strokeColor=#E07A5F;fontColor=#393C56;fontSize=14;" parent="37HL_in9zZdYbBOrax-n-23" vertex="1">
          <mxGeometry y="24" width="300" height="96" as="geometry" />
        </mxCell>
        <mxCell id="37HL_in9zZdYbBOrax-n-25" value="PK" style="shape=partialRectangle;overflow=hidden;connectable=0;fillColor=none;top=0;left=0;bottom=0;right=0;fontStyle=1;labelBackgroundColor=none;strokeColor=#E07A5F;fontColor=#393C56;fontSize=14;" parent="37HL_in9zZdYbBOrax-n-24" vertex="1">
          <mxGeometry width="30" height="96" as="geometry">
            <mxRectangle width="30" height="96" as="alternateBounds" />
          </mxGeometry>
        </mxCell>
        <mxCell id="37HL_in9zZdYbBOrax-n-26" value="MNote_ID&#xa;MProduct_ID&#xa;Engine_Number&#xa;VIN" style="shape=partialRectangle;overflow=hidden;connectable=0;fillColor=none;top=0;left=0;bottom=0;right=0;align=left;spacingLeft=6;fontStyle=5;labelBackgroundColor=none;strokeColor=#E07A5F;fontColor=#393C56;fontSize=14;" parent="37HL_in9zZdYbBOrax-n-24" vertex="1">
          <mxGeometry x="30" width="270" height="96" as="geometry">
            <mxRectangle width="270" height="96" as="alternateBounds" />
          </mxGeometry>
        </mxCell>
        <mxCell id="37HL_in9zZdYbBOrax-n-27" value="" style="shape=partialRectangle;collapsible=0;dropTarget=0;pointerEvents=0;fillColor=none;points=[[0,0.5],[1,0.5]];portConstraint=eastwest;top=0;left=0;right=0;bottom=0;labelBackgroundColor=none;strokeColor=#E07A5F;fontColor=#393C56;fontSize=14;" parent="37HL_in9zZdYbBOrax-n-23" vertex="1">
          <mxGeometry y="120" width="300" height="40" as="geometry" />
        </mxCell>
        <mxCell id="37HL_in9zZdYbBOrax-n-28" value="" style="shape=partialRectangle;overflow=hidden;connectable=0;fillColor=none;top=0;left=0;bottom=0;right=0;labelBackgroundColor=none;strokeColor=#E07A5F;fontColor=#393C56;fontSize=14;" parent="37HL_in9zZdYbBOrax-n-27" vertex="1">
          <mxGeometry width="30" height="40" as="geometry">
            <mxRectangle width="30" height="40" as="alternateBounds" />
          </mxGeometry>
        </mxCell>
        <mxCell id="37HL_in9zZdYbBOrax-n-29" value="Unit_PriceÂ &#xa;Quantity" style="shape=partialRectangle;overflow=hidden;connectable=0;fillColor=none;top=0;left=0;bottom=0;right=0;align=left;spacingLeft=6;labelBackgroundColor=none;strokeColor=#E07A5F;fontColor=#393C56;fontSize=14;" parent="37HL_in9zZdYbBOrax-n-27" vertex="1">
          <mxGeometry x="30" width="270" height="40" as="geometry">
            <mxRectangle width="270" height="40" as="alternateBounds" />
          </mxGeometry>
        </mxCell>
        <mxCell id="arhX2NloKPXsOQHOqjrg-1" value="" style="verticalLabelPosition=bottom;verticalAlign=top;html=1;shape=mxgraph.flowchart.on-page_reference;fillColor=#ffe6cc;strokeColor=#d79b00;" parent="1" vertex="1">
          <mxGeometry x="1789.8" y="6674.160000000001" width="60" height="60" as="geometry" />
        </mxCell>
        <mxCell id="arhX2NloKPXsOQHOqjrg-4" value="" style="endArrow=none;html=1;rounded=0;exitX=0.894;exitY=1.048;exitDx=0;exitDy=0;exitPerimeter=0;fillColor=#ffe6cc;strokeColor=#d79b00;entryX=0.33;entryY=0.002;entryDx=0;entryDy=0;entryPerimeter=0;" parent="1" source="arhX2NloKPXsOQHOqjrg-77" target="37HL_in9zZdYbBOrax-n-9" edge="1">
          <mxGeometry width="50" height="50" relative="1" as="geometry">
            <mxPoint x="1929.8" y="6680.160000000001" as="sourcePoint" />
            <mxPoint x="1969.8" y="6787.72" as="targetPoint" />
          </mxGeometry>
        </mxCell>
        <mxCell id="arhX2NloKPXsOQHOqjrg-5" value="" style="endArrow=none;html=1;rounded=0;exitX=0.5;exitY=0;exitDx=0;exitDy=0;fillColor=#ffe6cc;strokeColor=#d79b00;" parent="1" source="37HL_in9zZdYbBOrax-n-16" target="arhX2NloKPXsOQHOqjrg-77" edge="1">
          <mxGeometry width="50" height="50" relative="1" as="geometry">
            <mxPoint x="1689.8" y="6807.72" as="sourcePoint" />
            <mxPoint x="1789.8" y="6717.72" as="targetPoint" />
          </mxGeometry>
        </mxCell>
        <mxCell id="arhX2NloKPXsOQHOqjrg-6" value="REPAIR_ORDER" style="shape=table;startSize=30;container=1;collapsible=1;childLayout=tableLayout;fixedRows=1;rowLines=0;fontStyle=1;align=center;resizeLast=1;labelBackgroundColor=none;fillColor=#F2CC8F;strokeColor=#E07A5F;fontColor=#393C56;fontSize=14;" parent="1" vertex="1">
          <mxGeometry x="999.8" y="6557.72" width="250" height="198.72793701171966" as="geometry" />
        </mxCell>
        <mxCell id="arhX2NloKPXsOQHOqjrg-7" value="" style="shape=partialRectangle;collapsible=0;dropTarget=0;pointerEvents=0;fillColor=none;points=[[0,0.5],[1,0.5]];portConstraint=eastwest;top=0;left=0;right=0;bottom=1;labelBackgroundColor=none;strokeColor=#E07A5F;fontColor=#393C56;fontSize=14;" parent="arhX2NloKPXsOQHOqjrg-6" vertex="1">
          <mxGeometry y="30" width="250" height="40" as="geometry" />
        </mxCell>
        <mxCell id="arhX2NloKPXsOQHOqjrg-8" value="PK" style="shape=partialRectangle;overflow=hidden;connectable=0;fillColor=none;top=0;left=0;bottom=0;right=0;fontStyle=1;labelBackgroundColor=none;strokeColor=#E07A5F;fontColor=#393C56;fontSize=14;" parent="arhX2NloKPXsOQHOqjrg-7" vertex="1">
          <mxGeometry width="30" height="40" as="geometry">
            <mxRectangle width="30" height="40" as="alternateBounds" />
          </mxGeometry>
        </mxCell>
        <mxCell id="arhX2NloKPXsOQHOqjrg-9" value="ROrder_ID" style="shape=partialRectangle;overflow=hidden;connectable=0;fillColor=none;top=0;left=0;bottom=0;right=0;align=left;spacingLeft=6;fontStyle=5;labelBackgroundColor=none;strokeColor=#E07A5F;fontColor=#393C56;fontSize=14;" parent="arhX2NloKPXsOQHOqjrg-7" vertex="1">
          <mxGeometry x="30" width="220" height="40" as="geometry">
            <mxRectangle width="220" height="40" as="alternateBounds" />
          </mxGeometry>
        </mxCell>
        <mxCell id="arhX2NloKPXsOQHOqjrg-10" value="" style="shape=partialRectangle;collapsible=0;dropTarget=0;pointerEvents=0;fillColor=none;points=[[0,0.5],[1,0.5]];portConstraint=eastwest;top=0;left=0;right=0;bottom=0;labelBackgroundColor=none;strokeColor=#E07A5F;fontColor=#393C56;fontSize=14;" parent="arhX2NloKPXsOQHOqjrg-6" vertex="1">
          <mxGeometry y="70" width="250" height="128" as="geometry" />
        </mxCell>
        <mxCell id="arhX2NloKPXsOQHOqjrg-11" value="" style="shape=partialRectangle;overflow=hidden;connectable=0;fillColor=none;top=0;left=0;bottom=0;right=0;labelBackgroundColor=none;strokeColor=#E07A5F;fontColor=#393C56;fontSize=14;" parent="arhX2NloKPXsOQHOqjrg-10" vertex="1">
          <mxGeometry width="30" height="128" as="geometry">
            <mxRectangle width="30" height="128" as="alternateBounds" />
          </mxGeometry>
        </mxCell>
        <mxCell id="arhX2NloKPXsOQHOqjrg-12" value="Employee_ID&#xa;Date&#xa;Customer_ID&#xa;Licence_Plate&#xa;Motor_type&#xa;" style="shape=partialRectangle;overflow=hidden;connectable=0;fillColor=none;top=0;left=0;bottom=0;right=0;align=left;spacingLeft=6;labelBackgroundColor=none;strokeColor=#E07A5F;fontColor=#393C56;fontSize=14;" parent="arhX2NloKPXsOQHOqjrg-10" vertex="1">
          <mxGeometry x="30" width="220" height="128" as="geometry">
            <mxRectangle width="220" height="128" as="alternateBounds" />
          </mxGeometry>
        </mxCell>
        <mxCell id="arhX2NloKPXsOQHOqjrg-13" value="REPAIR_INVOICE" style="shape=table;startSize=30;container=1;collapsible=1;childLayout=tableLayout;fixedRows=1;rowLines=0;fontStyle=1;align=center;resizeLast=1;labelBackgroundColor=none;fillColor=#F2CC8F;strokeColor=#E07A5F;fontColor=#393C56;fontSize=14;" parent="1" vertex="1">
          <mxGeometry x="917.8" y="6848.72" width="240" height="198.61538461538657" as="geometry" />
        </mxCell>
        <mxCell id="arhX2NloKPXsOQHOqjrg-14" value="" style="shape=partialRectangle;collapsible=0;dropTarget=0;pointerEvents=0;fillColor=none;points=[[0,0.5],[1,0.5]];portConstraint=eastwest;top=0;left=0;right=0;bottom=1;labelBackgroundColor=none;strokeColor=#E07A5F;fontColor=#393C56;fontSize=14;" parent="arhX2NloKPXsOQHOqjrg-13" vertex="1">
          <mxGeometry y="30" width="240" height="20" as="geometry" />
        </mxCell>
        <mxCell id="arhX2NloKPXsOQHOqjrg-15" value="PK" style="shape=partialRectangle;overflow=hidden;connectable=0;fillColor=none;top=0;left=0;bottom=0;right=0;fontStyle=1;labelBackgroundColor=none;strokeColor=#E07A5F;fontColor=#393C56;fontSize=14;" parent="arhX2NloKPXsOQHOqjrg-14" vertex="1">
          <mxGeometry width="30" height="20" as="geometry">
            <mxRectangle width="30" height="20" as="alternateBounds" />
          </mxGeometry>
        </mxCell>
        <mxCell id="arhX2NloKPXsOQHOqjrg-16" value="RInvoice_ID" style="shape=partialRectangle;overflow=hidden;connectable=0;fillColor=none;top=0;left=0;bottom=0;right=0;align=left;spacingLeft=6;fontStyle=5;labelBackgroundColor=none;strokeColor=#E07A5F;fontColor=#393C56;fontSize=14;" parent="arhX2NloKPXsOQHOqjrg-14" vertex="1">
          <mxGeometry x="30" width="210" height="20" as="geometry">
            <mxRectangle width="210" height="20" as="alternateBounds" />
          </mxGeometry>
        </mxCell>
        <mxCell id="arhX2NloKPXsOQHOqjrg-17" value="" style="shape=partialRectangle;collapsible=0;dropTarget=0;pointerEvents=0;fillColor=none;points=[[0,0.5],[1,0.5]];portConstraint=eastwest;top=0;left=0;right=0;bottom=0;labelBackgroundColor=none;strokeColor=#E07A5F;fontColor=#393C56;fontSize=14;" parent="arhX2NloKPXsOQHOqjrg-13" vertex="1">
          <mxGeometry y="50" width="240" height="148" as="geometry" />
        </mxCell>
        <mxCell id="arhX2NloKPXsOQHOqjrg-18" value="" style="shape=partialRectangle;overflow=hidden;connectable=0;fillColor=none;top=0;left=0;bottom=0;right=0;labelBackgroundColor=none;strokeColor=#E07A5F;fontColor=#393C56;fontSize=14;" parent="arhX2NloKPXsOQHOqjrg-17" vertex="1">
          <mxGeometry width="30" height="148" as="geometry">
            <mxRectangle width="30" height="148" as="alternateBounds" />
          </mxGeometry>
        </mxCell>
        <mxCell id="arhX2NloKPXsOQHOqjrg-19" value="Date&#xa;ROrder_ID&#xa;Employee_IDÂ Â &#xa;PriceÂ Â &#xa;Warranty_ID&#xa;Discount&#xa;Payment_Type&#xa;" style="shape=partialRectangle;overflow=hidden;connectable=0;fillColor=none;top=0;left=0;bottom=0;right=0;align=left;spacingLeft=6;labelBackgroundColor=none;strokeColor=#E07A5F;fontColor=#393C56;fontSize=14;" parent="arhX2NloKPXsOQHOqjrg-17" vertex="1">
          <mxGeometry x="30" width="210" height="148" as="geometry">
            <mxRectangle width="210" height="148" as="alternateBounds" />
          </mxGeometry>
        </mxCell>
        <mxCell id="arhX2NloKPXsOQHOqjrg-48" value="MOTORCYCLE_DELIVERY_NOTE" style="shape=table;startSize=30;container=1;collapsible=1;childLayout=tableLayout;fixedRows=1;rowLines=0;fontStyle=1;align=center;resizeLast=1;labelBackgroundColor=none;fillColor=#F2CC8F;strokeColor=#E07A5F;fontColor=#393C56;fontSize=14;" parent="1" vertex="1">
          <mxGeometry x="2679.8" y="6811.72" width="250" height="182.71383666992188" as="geometry" />
        </mxCell>
        <mxCell id="arhX2NloKPXsOQHOqjrg-49" value="" style="shape=partialRectangle;collapsible=0;dropTarget=0;pointerEvents=0;fillColor=none;points=[[0,0.5],[1,0.5]];portConstraint=eastwest;top=0;left=0;right=0;bottom=1;labelBackgroundColor=none;strokeColor=#E07A5F;fontColor=#393C56;fontSize=14;" parent="arhX2NloKPXsOQHOqjrg-48" vertex="1">
          <mxGeometry y="30" width="250" height="40" as="geometry" />
        </mxCell>
        <mxCell id="arhX2NloKPXsOQHOqjrg-50" value="PK" style="shape=partialRectangle;overflow=hidden;connectable=0;fillColor=none;top=0;left=0;bottom=0;right=0;fontStyle=1;labelBackgroundColor=none;strokeColor=#E07A5F;fontColor=#393C56;fontSize=14;" parent="arhX2NloKPXsOQHOqjrg-49" vertex="1">
          <mxGeometry width="30" height="40" as="geometry">
            <mxRectangle width="30" height="40" as="alternateBounds" />
          </mxGeometry>
        </mxCell>
        <mxCell id="arhX2NloKPXsOQHOqjrg-51" value="MNote_ID" style="shape=partialRectangle;overflow=hidden;connectable=0;fillColor=none;top=0;left=0;bottom=0;right=0;align=left;spacingLeft=6;fontStyle=5;labelBackgroundColor=none;strokeColor=#E07A5F;fontColor=#393C56;fontSize=14;" parent="arhX2NloKPXsOQHOqjrg-49" vertex="1">
          <mxGeometry x="30" width="220" height="40" as="geometry">
            <mxRectangle width="220" height="40" as="alternateBounds" />
          </mxGeometry>
        </mxCell>
        <mxCell id="arhX2NloKPXsOQHOqjrg-52" value="" style="shape=partialRectangle;collapsible=0;dropTarget=0;pointerEvents=0;fillColor=none;points=[[0,0.5],[1,0.5]];portConstraint=eastwest;top=0;left=0;right=0;bottom=0;labelBackgroundColor=none;strokeColor=#E07A5F;fontColor=#393C56;fontSize=14;" parent="arhX2NloKPXsOQHOqjrg-48" vertex="1">
          <mxGeometry y="70" width="250" height="112" as="geometry" />
        </mxCell>
        <mxCell id="arhX2NloKPXsOQHOqjrg-53" value="" style="shape=partialRectangle;overflow=hidden;connectable=0;fillColor=none;top=0;left=0;bottom=0;right=0;labelBackgroundColor=none;strokeColor=#E07A5F;fontColor=#393C56;fontSize=14;" parent="arhX2NloKPXsOQHOqjrg-52" vertex="1">
          <mxGeometry width="30" height="112" as="geometry">
            <mxRectangle width="30" height="112" as="alternateBounds" />
          </mxGeometry>
        </mxCell>
        <mxCell id="arhX2NloKPXsOQHOqjrg-54" value="Inventory_ID&#xa;Employee_ID&#xa;Date&#xa;SInvoice_ID" style="shape=partialRectangle;overflow=hidden;connectable=0;fillColor=none;top=0;left=0;bottom=0;right=0;align=left;spacingLeft=6;labelBackgroundColor=none;strokeColor=#E07A5F;fontColor=#393C56;fontSize=14;fontStyle=0" parent="arhX2NloKPXsOQHOqjrg-52" vertex="1">
          <mxGeometry x="30" width="220" height="112" as="geometry">
            <mxRectangle width="220" height="112" as="alternateBounds" />
          </mxGeometry>
        </mxCell>
        <mxCell id="arhX2NloKPXsOQHOqjrg-55" value="SALES_ORDER_INVOICE" style="shape=table;startSize=30;container=1;collapsible=1;childLayout=tableLayout;fixedRows=1;rowLines=0;fontStyle=1;align=center;resizeLast=1;labelBackgroundColor=none;fillColor=#F2CC8F;strokeColor=#E07A5F;fontColor=#393C56;fontSize=14;" parent="1" vertex="1">
          <mxGeometry x="2638.8" y="7076.72" width="250" height="165" as="geometry" />
        </mxCell>
        <mxCell id="arhX2NloKPXsOQHOqjrg-56" value="" style="shape=partialRectangle;collapsible=0;dropTarget=0;pointerEvents=0;fillColor=none;points=[[0,0.5],[1,0.5]];portConstraint=eastwest;top=0;left=0;right=0;bottom=1;labelBackgroundColor=none;strokeColor=#E07A5F;fontColor=#393C56;fontSize=14;" parent="arhX2NloKPXsOQHOqjrg-55" vertex="1">
          <mxGeometry y="30" width="250" height="30" as="geometry" />
        </mxCell>
        <mxCell id="arhX2NloKPXsOQHOqjrg-57" value="PK" style="shape=partialRectangle;overflow=hidden;connectable=0;fillColor=none;top=0;left=0;bottom=0;right=0;fontStyle=1;labelBackgroundColor=none;strokeColor=#E07A5F;fontColor=#393C56;fontSize=14;" parent="arhX2NloKPXsOQHOqjrg-56" vertex="1">
          <mxGeometry width="30" height="30" as="geometry">
            <mxRectangle width="30" height="30" as="alternateBounds" />
          </mxGeometry>
        </mxCell>
        <mxCell id="arhX2NloKPXsOQHOqjrg-58" value="SInvoice_ID" style="shape=partialRectangle;overflow=hidden;connectable=0;fillColor=none;top=0;left=0;bottom=0;right=0;align=left;spacingLeft=6;fontStyle=5;labelBackgroundColor=none;strokeColor=#E07A5F;fontColor=#393C56;fontSize=14;" parent="arhX2NloKPXsOQHOqjrg-56" vertex="1">
          <mxGeometry x="30" width="220" height="30" as="geometry">
            <mxRectangle width="220" height="30" as="alternateBounds" />
          </mxGeometry>
        </mxCell>
        <mxCell id="arhX2NloKPXsOQHOqjrg-59" value="" style="shape=partialRectangle;collapsible=0;dropTarget=0;pointerEvents=0;fillColor=none;points=[[0,0.5],[1,0.5]];portConstraint=eastwest;top=0;left=0;right=0;bottom=0;labelBackgroundColor=none;strokeColor=#E07A5F;fontColor=#393C56;fontSize=14;" parent="arhX2NloKPXsOQHOqjrg-55" vertex="1">
          <mxGeometry y="60" width="250" height="105" as="geometry" />
        </mxCell>
        <mxCell id="arhX2NloKPXsOQHOqjrg-60" value="" style="shape=partialRectangle;overflow=hidden;connectable=0;fillColor=none;top=0;left=0;bottom=0;right=0;labelBackgroundColor=none;strokeColor=#E07A5F;fontColor=#393C56;fontSize=14;" parent="arhX2NloKPXsOQHOqjrg-59" vertex="1">
          <mxGeometry width="30" height="105" as="geometry">
            <mxRectangle width="30" height="105" as="alternateBounds" />
          </mxGeometry>
        </mxCell>
        <mxCell id="arhX2NloKPXsOQHOqjrg-61" value="Invoice_Date&#xa;Customer_ID&#xa;Total&#xa;Employee_ID&#xa;Payment_Type&#xa;" style="shape=partialRectangle;overflow=hidden;connectable=0;fillColor=none;top=0;left=0;bottom=0;right=0;align=left;spacingLeft=6;labelBackgroundColor=none;strokeColor=#E07A5F;fontColor=#393C56;fontSize=14;" parent="arhX2NloKPXsOQHOqjrg-59" vertex="1">
          <mxGeometry x="30" width="220" height="105" as="geometry">
            <mxRectangle width="220" height="105" as="alternateBounds" />
          </mxGeometry>
        </mxCell>
        <mxCell id="arhX2NloKPXsOQHOqjrg-69" value="WARRANTY_CARD" style="shape=table;startSize=30;container=1;collapsible=1;childLayout=tableLayout;fixedRows=1;rowLines=0;fontStyle=1;align=center;resizeLast=1;labelBackgroundColor=none;fillColor=#F2CC8F;strokeColor=#E07A5F;fontColor=#393C56;fontSize=14;" parent="1" vertex="1">
          <mxGeometry x="2249.8" y="6897.72" width="250" height="190" as="geometry" />
        </mxCell>
        <mxCell id="arhX2NloKPXsOQHOqjrg-70" value="" style="shape=partialRectangle;collapsible=0;dropTarget=0;pointerEvents=0;fillColor=none;points=[[0,0.5],[1,0.5]];portConstraint=eastwest;top=0;left=0;right=0;bottom=1;labelBackgroundColor=none;strokeColor=#E07A5F;fontColor=#393C56;fontSize=14;" parent="arhX2NloKPXsOQHOqjrg-69" vertex="1">
          <mxGeometry y="30" width="250" height="30" as="geometry" />
        </mxCell>
        <mxCell id="arhX2NloKPXsOQHOqjrg-71" value="PK" style="shape=partialRectangle;overflow=hidden;connectable=0;fillColor=none;top=0;left=0;bottom=0;right=0;fontStyle=1;labelBackgroundColor=none;strokeColor=#E07A5F;fontColor=#393C56;fontSize=14;" parent="arhX2NloKPXsOQHOqjrg-70" vertex="1">
          <mxGeometry width="30" height="30" as="geometry">
            <mxRectangle width="30" height="30" as="alternateBounds" />
          </mxGeometry>
        </mxCell>
        <mxCell id="arhX2NloKPXsOQHOqjrg-72" value="Warranty_ID" style="shape=partialRectangle;overflow=hidden;connectable=0;fillColor=none;top=0;left=0;bottom=0;right=0;align=left;spacingLeft=6;fontStyle=5;labelBackgroundColor=none;strokeColor=#E07A5F;fontColor=#393C56;fontSize=14;" parent="arhX2NloKPXsOQHOqjrg-70" vertex="1">
          <mxGeometry x="30" width="220" height="30" as="geometry">
            <mxRectangle width="220" height="30" as="alternateBounds" />
          </mxGeometry>
        </mxCell>
        <mxCell id="arhX2NloKPXsOQHOqjrg-73" value="" style="shape=partialRectangle;collapsible=0;dropTarget=0;pointerEvents=0;fillColor=none;points=[[0,0.5],[1,0.5]];portConstraint=eastwest;top=0;left=0;right=0;bottom=0;labelBackgroundColor=none;strokeColor=#E07A5F;fontColor=#393C56;fontSize=14;" parent="arhX2NloKPXsOQHOqjrg-69" vertex="1">
          <mxGeometry y="60" width="250" height="130" as="geometry" />
        </mxCell>
        <mxCell id="arhX2NloKPXsOQHOqjrg-74" value="" style="shape=partialRectangle;overflow=hidden;connectable=0;fillColor=none;top=0;left=0;bottom=0;right=0;labelBackgroundColor=none;strokeColor=#E07A5F;fontColor=#393C56;fontSize=14;" parent="arhX2NloKPXsOQHOqjrg-73" vertex="1">
          <mxGeometry width="30" height="130" as="geometry">
            <mxRectangle width="30" height="130" as="alternateBounds" />
          </mxGeometry>
        </mxCell>
        <mxCell id="arhX2NloKPXsOQHOqjrg-75" value="MNote_ID&#xa;MProduct_ID&#xa;Engine_Number&#xa;VIN&#xa;Warranty_Period&#xa;Warranty_Status&#xa;Start_Date" style="shape=partialRectangle;overflow=hidden;connectable=0;fillColor=none;top=0;left=0;bottom=0;right=0;align=left;spacingLeft=6;labelBackgroundColor=none;strokeColor=#E07A5F;fontColor=#393C56;fontSize=14;labelBorderColor=none;" parent="arhX2NloKPXsOQHOqjrg-73" vertex="1">
          <mxGeometry x="30" width="220" height="130" as="geometry">
            <mxRectangle width="220" height="130" as="alternateBounds" />
          </mxGeometry>
        </mxCell>
        <mxCell id="arhX2NloKPXsOQHOqjrg-77" value="&lt;font size=&quot;1&quot; face=&quot;Times New Roman&quot;&gt;&lt;b style=&quot;font-size: 29px;&quot;&gt;d&lt;/b&gt;&lt;/font&gt;" style="text;html=1;align=center;verticalAlign=middle;whiteSpace=wrap;rounded=0;" parent="1" vertex="1">
          <mxGeometry x="1789.8" y="6689.160000000001" width="60" height="30" as="geometry" />
        </mxCell>
        <mxCell id="9Vi4DtW_JoVe9wqMOlgI-1" value="INVENTORY" style="shape=table;startSize=30;container=1;collapsible=1;childLayout=tableLayout;fixedRows=1;rowLines=0;fontStyle=1;align=center;resizeLast=1;labelBackgroundColor=none;fillColor=#F2CC8F;strokeColor=#E07A5F;fontColor=#393C56;fontSize=14;" parent="1" vertex="1">
          <mxGeometry x="1547.8" y="6105.000000000001" width="250" height="112.71999999999389" as="geometry" />
        </mxCell>
        <mxCell id="9Vi4DtW_JoVe9wqMOlgI-2" value="" style="shape=partialRectangle;collapsible=0;dropTarget=0;pointerEvents=0;fillColor=none;points=[[0,0.5],[1,0.5]];portConstraint=eastwest;top=0;left=0;right=0;bottom=1;labelBackgroundColor=none;strokeColor=#E07A5F;fontColor=#393C56;fontSize=14;" parent="9Vi4DtW_JoVe9wqMOlgI-1" vertex="1">
          <mxGeometry y="30" width="250" height="42" as="geometry" />
        </mxCell>
        <mxCell id="9Vi4DtW_JoVe9wqMOlgI-3" value="PK" style="shape=partialRectangle;overflow=hidden;connectable=0;fillColor=none;top=0;left=0;bottom=0;right=0;fontStyle=1;labelBackgroundColor=none;strokeColor=#E07A5F;fontColor=#393C56;fontSize=14;" parent="9Vi4DtW_JoVe9wqMOlgI-2" vertex="1">
          <mxGeometry width="30" height="42" as="geometry">
            <mxRectangle width="30" height="42" as="alternateBounds" />
          </mxGeometry>
        </mxCell>
        <mxCell id="9Vi4DtW_JoVe9wqMOlgI-4" value="Inventory_ID" style="shape=partialRectangle;overflow=hidden;connectable=0;fillColor=none;top=0;left=0;bottom=0;right=0;align=left;spacingLeft=6;fontStyle=5;labelBackgroundColor=none;strokeColor=#E07A5F;fontColor=#393C56;fontSize=14;" parent="9Vi4DtW_JoVe9wqMOlgI-2" vertex="1">
          <mxGeometry x="30" width="220" height="42" as="geometry">
            <mxRectangle width="220" height="42" as="alternateBounds" />
          </mxGeometry>
        </mxCell>
        <mxCell id="9Vi4DtW_JoVe9wqMOlgI-5" value="" style="shape=partialRectangle;collapsible=0;dropTarget=0;pointerEvents=0;fillColor=none;points=[[0,0.5],[1,0.5]];portConstraint=eastwest;top=0;left=0;right=0;bottom=0;labelBackgroundColor=none;strokeColor=#E07A5F;fontColor=#393C56;fontSize=14;" parent="9Vi4DtW_JoVe9wqMOlgI-1" vertex="1">
          <mxGeometry y="72" width="250" height="40" as="geometry" />
        </mxCell>
        <mxCell id="9Vi4DtW_JoVe9wqMOlgI-6" value="" style="shape=partialRectangle;overflow=hidden;connectable=0;fillColor=none;top=0;left=0;bottom=0;right=0;labelBackgroundColor=none;strokeColor=#E07A5F;fontColor=#393C56;fontSize=14;" parent="9Vi4DtW_JoVe9wqMOlgI-5" vertex="1">
          <mxGeometry width="30" height="40" as="geometry">
            <mxRectangle width="30" height="40" as="alternateBounds" />
          </mxGeometry>
        </mxCell>
        <mxCell id="9Vi4DtW_JoVe9wqMOlgI-7" value="Inventory_Name&#xa;Location" style="shape=partialRectangle;overflow=hidden;connectable=0;fillColor=none;top=0;left=0;bottom=0;right=0;align=left;spacingLeft=6;labelBackgroundColor=none;strokeColor=#E07A5F;fontColor=#393C56;fontSize=14;" parent="9Vi4DtW_JoVe9wqMOlgI-5" vertex="1">
          <mxGeometry x="30" width="220" height="40" as="geometry">
            <mxRectangle width="220" height="40" as="alternateBounds" />
          </mxGeometry>
        </mxCell>
        <mxCell id="9Vi4DtW_JoVe9wqMOlgI-8" value="" style="endArrow=ERmandOne;html=1;rounded=0;labelBackgroundColor=none;strokeColor=#d79b00;fontColor=default;startArrow=ERoneToMany;startFill=0;endFill=0;fontSize=14;fillColor=#ffe6cc;entryX=0.263;entryY=-0.003;entryDx=0;entryDy=0;entryPerimeter=0;exitX=0.458;exitY=1.059;exitDx=0;exitDy=0;exitPerimeter=0;" parent="1" source="S2El1OMhgtDXLihTYKp4-7" target="37HL_in9zZdYbBOrax-n-2" edge="1">
          <mxGeometry width="50" height="50" relative="1" as="geometry">
            <mxPoint x="1760.8" y="6373.72" as="sourcePoint" />
            <mxPoint x="1829.8" y="6427.72" as="targetPoint" />
            <Array as="points" />
          </mxGeometry>
        </mxCell>
        <mxCell id="4PVSJn8JbAyRpApGVOqt-28" value="CUSTOMER" style="shape=table;startSize=30;container=1;collapsible=1;childLayout=tableLayout;fixedRows=1;rowLines=0;fontStyle=1;align=center;resizeLast=1;labelBackgroundColor=none;fillColor=#F2CC8F;strokeColor=#E07A5F;fontColor=#393C56;fontSize=14;" parent="1" vertex="1">
          <mxGeometry x="2319.8" y="7267.72" width="200" height="160" as="geometry" />
        </mxCell>
        <mxCell id="4PVSJn8JbAyRpApGVOqt-29" value="" style="shape=partialRectangle;collapsible=0;dropTarget=0;pointerEvents=0;fillColor=none;points=[[0,0.5],[1,0.5]];portConstraint=eastwest;top=0;left=0;right=0;bottom=1;labelBackgroundColor=none;strokeColor=#E07A5F;fontColor=#393C56;fontSize=14;" parent="4PVSJn8JbAyRpApGVOqt-28" vertex="1">
          <mxGeometry y="30" width="200" height="30" as="geometry" />
        </mxCell>
        <mxCell id="4PVSJn8JbAyRpApGVOqt-30" value="PK" style="shape=partialRectangle;overflow=hidden;connectable=0;fillColor=none;top=0;left=0;bottom=0;right=0;fontStyle=1;labelBackgroundColor=none;strokeColor=#E07A5F;fontColor=#393C56;fontSize=14;" parent="4PVSJn8JbAyRpApGVOqt-29" vertex="1">
          <mxGeometry width="42" height="30" as="geometry">
            <mxRectangle width="42" height="30" as="alternateBounds" />
          </mxGeometry>
        </mxCell>
        <mxCell id="4PVSJn8JbAyRpApGVOqt-31" value="Customer_ID" style="shape=partialRectangle;overflow=hidden;connectable=0;fillColor=none;top=0;left=0;bottom=0;right=0;align=left;spacingLeft=6;fontStyle=5;labelBackgroundColor=none;strokeColor=#E07A5F;fontColor=#393C56;fontSize=14;" parent="4PVSJn8JbAyRpApGVOqt-29" vertex="1">
          <mxGeometry x="42" width="158" height="30" as="geometry">
            <mxRectangle width="158" height="30" as="alternateBounds" />
          </mxGeometry>
        </mxCell>
        <mxCell id="4PVSJn8JbAyRpApGVOqt-32" value="" style="shape=partialRectangle;collapsible=0;dropTarget=0;pointerEvents=0;fillColor=none;points=[[0,0.5],[1,0.5]];portConstraint=eastwest;top=0;left=0;right=0;bottom=0;labelBackgroundColor=none;strokeColor=#E07A5F;fontColor=#393C56;fontSize=14;" parent="4PVSJn8JbAyRpApGVOqt-28" vertex="1">
          <mxGeometry y="60" width="200" height="100" as="geometry" />
        </mxCell>
        <mxCell id="4PVSJn8JbAyRpApGVOqt-33" value="" style="shape=partialRectangle;overflow=hidden;connectable=0;fillColor=none;top=0;left=0;bottom=0;right=0;labelBackgroundColor=none;strokeColor=#E07A5F;fontColor=#393C56;fontSize=14;" parent="4PVSJn8JbAyRpApGVOqt-32" vertex="1">
          <mxGeometry width="42" height="100" as="geometry">
            <mxRectangle width="42" height="100" as="alternateBounds" />
          </mxGeometry>
        </mxCell>
        <mxCell id="4PVSJn8JbAyRpApGVOqt-34" value="Name&#xa;Phone_Number&#xa;Gender&#xa;DOB&#xa;AddressÂ " style="shape=partialRectangle;overflow=hidden;connectable=0;fillColor=none;top=0;left=0;bottom=0;right=0;align=left;spacingLeft=6;labelBackgroundColor=none;strokeColor=#E07A5F;fontColor=#393C56;fontSize=14;" parent="4PVSJn8JbAyRpApGVOqt-32" vertex="1">
          <mxGeometry x="42" width="158" height="100" as="geometry">
            <mxRectangle width="158" height="100" as="alternateBounds" />
          </mxGeometry>
        </mxCell>
        <mxCell id="4PVSJn8JbAyRpApGVOqt-35" value="EMPLOYEE" style="shape=table;startSize=30;container=1;collapsible=1;childLayout=tableLayout;fixedRows=1;rowLines=0;fontStyle=1;align=center;resizeLast=1;labelBackgroundColor=none;fillColor=#F2CC8F;strokeColor=#E07A5F;fontColor=#393C56;fontSize=14;" parent="1" vertex="1">
          <mxGeometry x="1819.8" y="7056.130000000001" width="250" height="242" as="geometry" />
        </mxCell>
        <mxCell id="4PVSJn8JbAyRpApGVOqt-36" value="" style="shape=partialRectangle;collapsible=0;dropTarget=0;pointerEvents=0;fillColor=none;points=[[0,0.5],[1,0.5]];portConstraint=eastwest;top=0;left=0;right=0;bottom=1;labelBackgroundColor=none;strokeColor=#E07A5F;fontColor=#393C56;fontSize=14;" parent="4PVSJn8JbAyRpApGVOqt-35" vertex="1">
          <mxGeometry y="30" width="250" height="30" as="geometry" />
        </mxCell>
        <mxCell id="4PVSJn8JbAyRpApGVOqt-37" value="PK" style="shape=partialRectangle;overflow=hidden;connectable=0;fillColor=none;top=0;left=0;bottom=0;right=0;fontStyle=1;labelBackgroundColor=none;strokeColor=#E07A5F;fontColor=#393C56;fontSize=14;" parent="4PVSJn8JbAyRpApGVOqt-36" vertex="1">
          <mxGeometry width="30" height="30" as="geometry">
            <mxRectangle width="30" height="30" as="alternateBounds" />
          </mxGeometry>
        </mxCell>
        <mxCell id="4PVSJn8JbAyRpApGVOqt-38" value="Employee_ID" style="shape=partialRectangle;overflow=hidden;connectable=0;fillColor=none;top=0;left=0;bottom=0;right=0;align=left;spacingLeft=6;fontStyle=5;labelBackgroundColor=none;strokeColor=#E07A5F;fontColor=#393C56;fontSize=14;" parent="4PVSJn8JbAyRpApGVOqt-36" vertex="1">
          <mxGeometry x="30" width="220" height="30" as="geometry">
            <mxRectangle width="220" height="30" as="alternateBounds" />
          </mxGeometry>
        </mxCell>
        <mxCell id="4PVSJn8JbAyRpApGVOqt-39" value="" style="shape=partialRectangle;collapsible=0;dropTarget=0;pointerEvents=0;fillColor=none;points=[[0,0.5],[1,0.5]];portConstraint=eastwest;top=0;left=0;right=0;bottom=0;labelBackgroundColor=none;strokeColor=#E07A5F;fontColor=#393C56;fontSize=14;" parent="4PVSJn8JbAyRpApGVOqt-35" vertex="1">
          <mxGeometry y="60" width="250" height="182" as="geometry" />
        </mxCell>
        <mxCell id="4PVSJn8JbAyRpApGVOqt-40" value="" style="shape=partialRectangle;overflow=hidden;connectable=0;fillColor=none;top=0;left=0;bottom=0;right=0;labelBackgroundColor=none;strokeColor=#E07A5F;fontColor=#393C56;fontSize=14;" parent="4PVSJn8JbAyRpApGVOqt-39" vertex="1">
          <mxGeometry width="30" height="182" as="geometry">
            <mxRectangle width="30" height="182" as="alternateBounds" />
          </mxGeometry>
        </mxCell>
        <mxCell id="4PVSJn8JbAyRpApGVOqt-41" value="NameÂ &#xa;Salary&#xa;Address&#xa;Gender&#xa;DOBÂ &#xa;Phone_NumberÂ &#xa;Email&#xa;Department_ID&#xa;Manager_ID&#xa;" style="shape=partialRectangle;overflow=hidden;connectable=0;fillColor=none;top=0;left=0;bottom=0;right=0;align=left;spacingLeft=6;labelBackgroundColor=none;strokeColor=#E07A5F;fontColor=#393C56;fontSize=14;" parent="4PVSJn8JbAyRpApGVOqt-39" vertex="1">
          <mxGeometry x="30" width="220" height="182" as="geometry">
            <mxRectangle width="220" height="182" as="alternateBounds" />
          </mxGeometry>
        </mxCell>
        <mxCell id="IXkmytif1bYwkih1Pq0B-4" value="" style="curved=0;endArrow=ERzeroToMany;html=1;rounded=1;strokeColor=#d79b00;fontColor=#393C56;fillColor=#ffe6cc;entryX=0;entryY=0.793;entryDx=0;entryDy=0;entryPerimeter=0;endFill=0;startArrow=ERzeroToOne;startFill=0;fontSize=14;exitX=0.998;exitY=0.913;exitDx=0;exitDy=0;exitPerimeter=0;" parent="4PVSJn8JbAyRpApGVOqt-35" source="4PVSJn8JbAyRpApGVOqt-36" target="4PVSJn8JbAyRpApGVOqt-36" edge="1">
          <mxGeometry width="50" height="50" relative="1" as="geometry">
            <mxPoint x="269" y="55.589999999999236" as="sourcePoint" />
            <mxPoint y="54.86999999999898" as="targetPoint" />
            <Array as="points">
              <mxPoint x="301" y="56.589999999999236" />
              <mxPoint x="301" y="-22.410000000000764" />
              <mxPoint x="-60" y="-21.410000000000764" />
              <mxPoint x="-60" y="53.86999999999898" />
            </Array>
          </mxGeometry>
        </mxCell>
        <mxCell id="4PVSJn8JbAyRpApGVOqt-42" value="SUPPLIER" style="shape=table;startSize=30;container=1;collapsible=1;childLayout=tableLayout;fixedRows=1;rowLines=0;fontStyle=1;align=center;resizeLast=1;labelBackgroundColor=none;fillColor=#F2CC8F;strokeColor=#E07A5F;fontColor=#393C56;fontSize=14;" parent="1" vertex="1">
          <mxGeometry x="2519.8" y="6217.72" width="250" height="130" as="geometry" />
        </mxCell>
        <mxCell id="4PVSJn8JbAyRpApGVOqt-43" value="" style="shape=partialRectangle;collapsible=0;dropTarget=0;pointerEvents=0;fillColor=none;points=[[0,0.5],[1,0.5]];portConstraint=eastwest;top=0;left=0;right=0;bottom=1;labelBackgroundColor=none;strokeColor=#E07A5F;fontColor=#393C56;fontSize=14;" parent="4PVSJn8JbAyRpApGVOqt-42" vertex="1">
          <mxGeometry y="30" width="250" height="30" as="geometry" />
        </mxCell>
        <mxCell id="4PVSJn8JbAyRpApGVOqt-44" value="PK" style="shape=partialRectangle;overflow=hidden;connectable=0;fillColor=none;top=0;left=0;bottom=0;right=0;fontStyle=1;labelBackgroundColor=none;strokeColor=#E07A5F;fontColor=#393C56;fontSize=14;" parent="4PVSJn8JbAyRpApGVOqt-43" vertex="1">
          <mxGeometry width="30" height="30" as="geometry">
            <mxRectangle width="30" height="30" as="alternateBounds" />
          </mxGeometry>
        </mxCell>
        <mxCell id="4PVSJn8JbAyRpApGVOqt-45" value="Supplier_ID" style="shape=partialRectangle;overflow=hidden;connectable=0;fillColor=none;top=0;left=0;bottom=0;right=0;align=left;spacingLeft=6;fontStyle=5;labelBackgroundColor=none;strokeColor=#E07A5F;fontColor=#393C56;fontSize=14;" parent="4PVSJn8JbAyRpApGVOqt-43" vertex="1">
          <mxGeometry x="30" width="220" height="30" as="geometry">
            <mxRectangle width="220" height="30" as="alternateBounds" />
          </mxGeometry>
        </mxCell>
        <mxCell id="4PVSJn8JbAyRpApGVOqt-46" value="" style="shape=partialRectangle;collapsible=0;dropTarget=0;pointerEvents=0;fillColor=none;points=[[0,0.5],[1,0.5]];portConstraint=eastwest;top=0;left=0;right=0;bottom=0;labelBackgroundColor=none;strokeColor=#E07A5F;fontColor=#393C56;fontSize=14;" parent="4PVSJn8JbAyRpApGVOqt-42" vertex="1">
          <mxGeometry y="60" width="250" height="70" as="geometry" />
        </mxCell>
        <mxCell id="4PVSJn8JbAyRpApGVOqt-47" value="" style="shape=partialRectangle;overflow=hidden;connectable=0;fillColor=none;top=0;left=0;bottom=0;right=0;labelBackgroundColor=none;strokeColor=#E07A5F;fontColor=#393C56;fontSize=14;" parent="4PVSJn8JbAyRpApGVOqt-46" vertex="1">
          <mxGeometry width="30" height="70" as="geometry">
            <mxRectangle width="30" height="70" as="alternateBounds" />
          </mxGeometry>
        </mxCell>
        <mxCell id="4PVSJn8JbAyRpApGVOqt-48" value="Supplier_Name&#xa;Phone_Number&#xa;Email" style="shape=partialRectangle;overflow=hidden;connectable=0;fillColor=none;top=0;left=0;bottom=0;right=0;align=left;spacingLeft=6;labelBackgroundColor=none;strokeColor=#E07A5F;fontColor=#393C56;fontSize=14;" parent="4PVSJn8JbAyRpApGVOqt-46" vertex="1">
          <mxGeometry x="30" width="220" height="70" as="geometry">
            <mxRectangle width="220" height="70" as="alternateBounds" />
          </mxGeometry>
        </mxCell>
        <mxCell id="4PVSJn8JbAyRpApGVOqt-49" value="" style="endArrow=ERzeroToMany;html=1;rounded=0;labelBackgroundColor=none;strokeColor=#d79b00;fontColor=default;startArrow=ERmandOne;startFill=0;endFill=0;fontSize=14;exitX=-0.006;exitY=0.051;exitDx=0;exitDy=0;exitPerimeter=0;entryX=0.999;entryY=1.03;entryDx=0;entryDy=0;fillColor=#ffe6cc;entryPerimeter=0;" parent="1" source="4PVSJn8JbAyRpApGVOqt-46" target="4PVSJn8JbAyRpApGVOqt-67" edge="1">
          <mxGeometry width="50" height="50" relative="1" as="geometry">
            <mxPoint x="2559.8" y="6279.72" as="sourcePoint" />
            <mxPoint x="2449.8" y="6279.72" as="targetPoint" />
          </mxGeometry>
        </mxCell>
        <mxCell id="4PVSJn8JbAyRpApGVOqt-50" value="PAYMENT_PURCHASE_ORDER" style="shape=table;startSize=30;container=1;collapsible=1;childLayout=tableLayout;fixedRows=1;rowLines=0;fontStyle=1;align=center;resizeLast=1;labelBackgroundColor=none;fillColor=#F2CC8F;strokeColor=#E07A5F;fontColor=#393C56;fontSize=14;" parent="1" vertex="1">
          <mxGeometry x="2519.8" y="6394.22" width="250" height="159.93992106119788" as="geometry" />
        </mxCell>
        <mxCell id="4PVSJn8JbAyRpApGVOqt-51" value="" style="shape=partialRectangle;collapsible=0;dropTarget=0;pointerEvents=0;fillColor=none;points=[[0,0.5],[1,0.5]];portConstraint=eastwest;top=0;left=0;right=0;bottom=1;labelBackgroundColor=none;strokeColor=#E07A5F;fontColor=#393C56;fontSize=14;" parent="4PVSJn8JbAyRpApGVOqt-50" vertex="1">
          <mxGeometry y="30" width="250" height="34" as="geometry" />
        </mxCell>
        <mxCell id="4PVSJn8JbAyRpApGVOqt-52" value="PK" style="shape=partialRectangle;overflow=hidden;connectable=0;fillColor=none;top=0;left=0;bottom=0;right=0;fontStyle=1;labelBackgroundColor=none;strokeColor=#E07A5F;fontColor=#393C56;fontSize=14;" parent="4PVSJn8JbAyRpApGVOqt-51" vertex="1">
          <mxGeometry width="30" height="34" as="geometry">
            <mxRectangle width="30" height="34" as="alternateBounds" />
          </mxGeometry>
        </mxCell>
        <mxCell id="4PVSJn8JbAyRpApGVOqt-53" value="Payment_ID" style="shape=partialRectangle;overflow=hidden;connectable=0;fillColor=none;top=0;left=0;bottom=0;right=0;align=left;spacingLeft=6;fontStyle=5;labelBackgroundColor=none;strokeColor=#E07A5F;fontColor=#393C56;fontSize=14;" parent="4PVSJn8JbAyRpApGVOqt-51" vertex="1">
          <mxGeometry x="30" width="220" height="34" as="geometry">
            <mxRectangle width="220" height="34" as="alternateBounds" />
          </mxGeometry>
        </mxCell>
        <mxCell id="4PVSJn8JbAyRpApGVOqt-54" value="" style="shape=partialRectangle;collapsible=0;dropTarget=0;pointerEvents=0;fillColor=none;points=[[0,0.5],[1,0.5]];portConstraint=eastwest;top=0;left=0;right=0;bottom=0;labelBackgroundColor=none;strokeColor=#E07A5F;fontColor=#393C56;fontSize=14;" parent="4PVSJn8JbAyRpApGVOqt-50" vertex="1">
          <mxGeometry y="64" width="250" height="94" as="geometry" />
        </mxCell>
        <mxCell id="4PVSJn8JbAyRpApGVOqt-55" value="" style="shape=partialRectangle;overflow=hidden;connectable=0;fillColor=none;top=0;left=0;bottom=0;right=0;labelBackgroundColor=none;strokeColor=#E07A5F;fontColor=#393C56;fontSize=14;" parent="4PVSJn8JbAyRpApGVOqt-54" vertex="1">
          <mxGeometry width="30" height="94" as="geometry">
            <mxRectangle width="30" height="94" as="alternateBounds" />
          </mxGeometry>
        </mxCell>
        <mxCell id="4PVSJn8JbAyRpApGVOqt-56" value="Date&#xa;PInvoice_ID&#xa;Payment_Type&#xa;Total" style="shape=partialRectangle;overflow=hidden;connectable=0;fillColor=none;top=0;left=0;bottom=0;right=0;align=left;spacingLeft=6;labelBackgroundColor=none;strokeColor=#E07A5F;fontColor=#393C56;fontSize=14;" parent="4PVSJn8JbAyRpApGVOqt-54" vertex="1">
          <mxGeometry x="30" width="220" height="94" as="geometry">
            <mxRectangle width="220" height="94" as="alternateBounds" />
          </mxGeometry>
        </mxCell>
        <mxCell id="4PVSJn8JbAyRpApGVOqt-57" value="PURCHASE_ORDER_INVOICE" style="shape=table;startSize=30;container=1;collapsible=1;childLayout=tableLayout;fixedRows=1;rowLines=0;fontStyle=1;align=center;resizeLast=1;labelBackgroundColor=none;fillColor=#F2CC8F;strokeColor=#E07A5F;fontColor=#393C56;fontSize=14;" parent="1" vertex="1">
          <mxGeometry x="2189.8" y="6394.22" width="250" height="140" as="geometry" />
        </mxCell>
        <mxCell id="4PVSJn8JbAyRpApGVOqt-58" value="" style="shape=partialRectangle;collapsible=0;dropTarget=0;pointerEvents=0;fillColor=none;points=[[0,0.5],[1,0.5]];portConstraint=eastwest;top=0;left=0;right=0;bottom=1;labelBackgroundColor=none;strokeColor=#E07A5F;fontColor=#393C56;fontSize=14;" parent="4PVSJn8JbAyRpApGVOqt-57" vertex="1">
          <mxGeometry y="30" width="250" height="30" as="geometry" />
        </mxCell>
        <mxCell id="4PVSJn8JbAyRpApGVOqt-59" value="PK" style="shape=partialRectangle;overflow=hidden;connectable=0;fillColor=none;top=0;left=0;bottom=0;right=0;fontStyle=1;labelBackgroundColor=none;strokeColor=#E07A5F;fontColor=#393C56;fontSize=14;" parent="4PVSJn8JbAyRpApGVOqt-58" vertex="1">
          <mxGeometry width="30" height="30" as="geometry">
            <mxRectangle width="30" height="30" as="alternateBounds" />
          </mxGeometry>
        </mxCell>
        <mxCell id="4PVSJn8JbAyRpApGVOqt-60" value="PInvoice_ID" style="shape=partialRectangle;overflow=hidden;connectable=0;fillColor=none;top=0;left=0;bottom=0;right=0;align=left;spacingLeft=6;fontStyle=5;labelBackgroundColor=none;strokeColor=#E07A5F;fontColor=#393C56;fontSize=14;" parent="4PVSJn8JbAyRpApGVOqt-58" vertex="1">
          <mxGeometry x="30" width="220" height="30" as="geometry">
            <mxRectangle width="220" height="30" as="alternateBounds" />
          </mxGeometry>
        </mxCell>
        <mxCell id="4PVSJn8JbAyRpApGVOqt-61" value="" style="shape=partialRectangle;collapsible=0;dropTarget=0;pointerEvents=0;fillColor=none;points=[[0,0.5],[1,0.5]];portConstraint=eastwest;top=0;left=0;right=0;bottom=0;labelBackgroundColor=none;strokeColor=#E07A5F;fontColor=#393C56;fontSize=14;" parent="4PVSJn8JbAyRpApGVOqt-57" vertex="1">
          <mxGeometry y="60" width="250" height="80" as="geometry" />
        </mxCell>
        <mxCell id="4PVSJn8JbAyRpApGVOqt-62" value="" style="shape=partialRectangle;overflow=hidden;connectable=0;fillColor=none;top=0;left=0;bottom=0;right=0;labelBackgroundColor=none;strokeColor=#E07A5F;fontColor=#393C56;fontSize=14;" parent="4PVSJn8JbAyRpApGVOqt-61" vertex="1">
          <mxGeometry width="30" height="80" as="geometry">
            <mxRectangle width="30" height="80" as="alternateBounds" />
          </mxGeometry>
        </mxCell>
        <mxCell id="4PVSJn8JbAyRpApGVOqt-63" value="Create_DateÂ &#xa;Exp_Date&#xa;POrder_ID&#xa;Amount" style="shape=partialRectangle;overflow=hidden;connectable=0;fillColor=none;top=0;left=0;bottom=0;right=0;align=left;spacingLeft=6;labelBackgroundColor=none;strokeColor=#E07A5F;fontColor=#393C56;fontSize=14;" parent="4PVSJn8JbAyRpApGVOqt-61" vertex="1">
          <mxGeometry x="30" width="220" height="80" as="geometry">
            <mxRectangle width="220" height="80" as="alternateBounds" />
          </mxGeometry>
        </mxCell>
        <mxCell id="4PVSJn8JbAyRpApGVOqt-64" value="" style="endArrow=ERmandOne;html=1;rounded=0;startArrow=ERmandOne;startFill=0;endFill=0;exitX=0.437;exitY=0.001;exitDx=0;exitDy=0;exitPerimeter=0;fontSize=14;entryX=0.438;entryY=1.008;entryDx=0;entryDy=0;entryPerimeter=0;fillColor=#ffe6cc;strokeColor=#d79b00;" parent="1" source="4PVSJn8JbAyRpApGVOqt-57" target="4PVSJn8JbAyRpApGVOqt-70" edge="1">
          <mxGeometry width="50" height="50" relative="1" as="geometry">
            <mxPoint x="2267.8" y="6411.22" as="sourcePoint" />
            <mxPoint x="2299.8" y="6334.22" as="targetPoint" />
          </mxGeometry>
        </mxCell>
        <mxCell id="4PVSJn8JbAyRpApGVOqt-65" value="" style="endArrow=ERmandOne;html=1;rounded=0;startArrow=ERoneToMany;startFill=0;endFill=0;fontSize=14;exitX=-0.001;exitY=0.013;exitDx=0;exitDy=0;exitPerimeter=0;fillColor=#ffe6cc;strokeColor=#d79b00;entryX=1.004;entryY=0.07;entryDx=0;entryDy=0;entryPerimeter=0;" parent="1" source="4PVSJn8JbAyRpApGVOqt-54" target="4PVSJn8JbAyRpApGVOqt-61" edge="1">
          <mxGeometry width="50" height="50" relative="1" as="geometry">
            <mxPoint x="2289.8" y="6554.22" as="sourcePoint" />
            <mxPoint x="2439.8" y="6489.72" as="targetPoint" />
          </mxGeometry>
        </mxCell>
        <mxCell id="4PVSJn8JbAyRpApGVOqt-66" value="PURCHASE_ORDER" style="shape=table;startSize=32;container=1;collapsible=1;childLayout=tableLayout;fixedRows=1;rowLines=0;fontStyle=1;align=center;resizeLast=1;labelBackgroundColor=none;fillColor=#F2CC8F;strokeColor=#E07A5F;fontColor=#393C56;fontSize=14;" parent="1" vertex="1">
          <mxGeometry x="2189.8" y="6217.72" width="250" height="122" as="geometry" />
        </mxCell>
        <mxCell id="4PVSJn8JbAyRpApGVOqt-67" value="" style="shape=partialRectangle;collapsible=0;dropTarget=0;pointerEvents=0;fillColor=none;points=[[0,0.5],[1,0.5]];portConstraint=eastwest;top=0;left=0;right=0;bottom=1;labelBackgroundColor=none;strokeColor=#E07A5F;fontColor=#393C56;fontSize=14;" parent="4PVSJn8JbAyRpApGVOqt-66" vertex="1">
          <mxGeometry y="32" width="250" height="30" as="geometry" />
        </mxCell>
        <mxCell id="4PVSJn8JbAyRpApGVOqt-68" value="PK" style="shape=partialRectangle;overflow=hidden;connectable=0;fillColor=none;top=0;left=0;bottom=0;right=0;fontStyle=1;labelBackgroundColor=none;strokeColor=#E07A5F;fontColor=#393C56;fontSize=14;" parent="4PVSJn8JbAyRpApGVOqt-67" vertex="1">
          <mxGeometry width="30" height="30" as="geometry">
            <mxRectangle width="30" height="30" as="alternateBounds" />
          </mxGeometry>
        </mxCell>
        <mxCell id="4PVSJn8JbAyRpApGVOqt-69" value="POrder_ID" style="shape=partialRectangle;overflow=hidden;connectable=0;fillColor=none;top=0;left=0;bottom=0;right=0;align=left;spacingLeft=6;fontStyle=5;labelBackgroundColor=none;strokeColor=#E07A5F;fontColor=#393C56;fontSize=14;" parent="4PVSJn8JbAyRpApGVOqt-67" vertex="1">
          <mxGeometry x="30" width="220" height="30" as="geometry">
            <mxRectangle width="220" height="30" as="alternateBounds" />
          </mxGeometry>
        </mxCell>
        <mxCell id="4PVSJn8JbAyRpApGVOqt-70" value="" style="shape=partialRectangle;collapsible=0;dropTarget=0;pointerEvents=0;fillColor=none;points=[[0,0.5],[1,0.5]];portConstraint=eastwest;top=0;left=0;right=0;bottom=0;labelBackgroundColor=none;strokeColor=#E07A5F;fontColor=#393C56;fontSize=14;" parent="4PVSJn8JbAyRpApGVOqt-66" vertex="1">
          <mxGeometry y="62" width="250" height="60" as="geometry" />
        </mxCell>
        <mxCell id="4PVSJn8JbAyRpApGVOqt-71" value="" style="shape=partialRectangle;overflow=hidden;connectable=0;fillColor=none;top=0;left=0;bottom=0;right=0;labelBackgroundColor=none;strokeColor=#E07A5F;fontColor=#393C56;fontSize=14;" parent="4PVSJn8JbAyRpApGVOqt-70" vertex="1">
          <mxGeometry width="30" height="60" as="geometry">
            <mxRectangle width="30" height="60" as="alternateBounds" />
          </mxGeometry>
        </mxCell>
        <mxCell id="4PVSJn8JbAyRpApGVOqt-72" value="Contact_name&#xa;Supplier_ID&#xa;Employee_ID" style="shape=partialRectangle;overflow=hidden;connectable=0;fillColor=none;top=0;left=0;bottom=0;right=0;align=left;spacingLeft=6;labelBackgroundColor=none;strokeColor=#E07A5F;fontColor=#393C56;fontSize=14;" parent="4PVSJn8JbAyRpApGVOqt-70" vertex="1">
          <mxGeometry x="30" width="220" height="60" as="geometry">
            <mxRectangle width="220" height="60" as="alternateBounds" />
          </mxGeometry>
        </mxCell>
        <mxCell id="4PVSJn8JbAyRpApGVOqt-80" value="&lt;b&gt;PURCHASE_ORDER_LINE&lt;/b&gt;" style="swimlane;childLayout=stackLayout;horizontal=1;startSize=43;horizontalStack=0;rounded=1;fontSize=14;fontStyle=1;strokeWidth=2;resizeParent=0;resizeLast=1;shadow=0;dashed=0;align=center;arcSize=4;whiteSpace=wrap;html=1;fillColor=#ffe6cc;strokeColor=#d79b00;" parent="1" vertex="1">
          <mxGeometry x="1889.8" y="6217.72" width="220" height="113" as="geometry" />
        </mxCell>
        <mxCell id="4PVSJn8JbAyRpApGVOqt-81" value="" style="endArrow=none;html=1;rounded=0;entryX=0.226;entryY=-0.014;entryDx=0;entryDy=0;entryPerimeter=0;exitX=0.224;exitY=0.968;exitDx=0;exitDy=0;exitPerimeter=0;fontSize=14;fillColor=#ffe6cc;strokeColor=#d79b00;" parent="4PVSJn8JbAyRpApGVOqt-80" source="4PVSJn8JbAyRpApGVOqt-86" target="4PVSJn8JbAyRpApGVOqt-83" edge="1">
          <mxGeometry width="50" height="50" relative="1" as="geometry">
            <mxPoint x="39.99999999999994" y="93.08599999999997" as="sourcePoint" />
            <mxPoint x="40.95999999999998" y="30.005000000000056" as="targetPoint" />
          </mxGeometry>
        </mxCell>
        <mxCell id="4PVSJn8JbAyRpApGVOqt-82" value="" style="shape=table;startSize=0;container=1;collapsible=1;childLayout=tableLayout;fixedRows=1;rowLines=0;fontStyle=0;align=center;resizeLast=1;strokeColor=none;fillColor=none;collapsible=0;fontSize=14;" parent="4PVSJn8JbAyRpApGVOqt-80" vertex="1">
          <mxGeometry y="43" width="220" height="37" as="geometry" />
        </mxCell>
        <mxCell id="4PVSJn8JbAyRpApGVOqt-83" value="" style="shape=tableRow;horizontal=0;startSize=0;swimlaneHead=0;swimlaneBody=0;fillColor=none;collapsible=0;dropTarget=0;points=[[0,0.5],[1,0.5]];portConstraint=eastwest;top=0;left=0;right=0;bottom=1;fontSize=14;" parent="4PVSJn8JbAyRpApGVOqt-82" vertex="1">
          <mxGeometry width="220" height="37" as="geometry" />
        </mxCell>
        <mxCell id="4PVSJn8JbAyRpApGVOqt-84" value="PK" style="shape=partialRectangle;connectable=0;fillColor=none;top=0;left=0;bottom=0;right=0;fontStyle=1;overflow=hidden;whiteSpace=wrap;html=1;fontSize=14;" parent="4PVSJn8JbAyRpApGVOqt-83" vertex="1">
          <mxGeometry width="50" height="37" as="geometry">
            <mxRectangle width="50" height="37" as="alternateBounds" />
          </mxGeometry>
        </mxCell>
        <mxCell id="4PVSJn8JbAyRpApGVOqt-85" value="&lt;div style=&quot;font-size: 14px;&quot;&gt;POrder_ID&lt;/div&gt;&lt;div style=&quot;font-size: 14px;&quot;&gt;Product_ID&lt;/div&gt;" style="shape=partialRectangle;connectable=0;fillColor=none;top=0;left=0;bottom=0;right=0;align=left;spacingLeft=6;fontStyle=5;overflow=hidden;whiteSpace=wrap;html=1;fontSize=14;" parent="4PVSJn8JbAyRpApGVOqt-83" vertex="1">
          <mxGeometry x="50" width="170" height="37" as="geometry">
            <mxRectangle width="170" height="37" as="alternateBounds" />
          </mxGeometry>
        </mxCell>
        <mxCell id="4PVSJn8JbAyRpApGVOqt-86" value="&lt;blockquote style=&quot;margin: 0px 0px 0px 40px; border: none; padding: 0px; font-size: 14px;&quot;&gt;&lt;blockquote style=&quot;margin: 0px 0px 0px 40px; border: none; padding: 0px; font-size: 14px;&quot;&gt;Quantity&lt;/blockquote&gt;&lt;blockquote style=&quot;margin: 0px 0px 0px 40px; border: none; padding: 0px; font-size: 14px;&quot;&gt;&lt;br&gt;&lt;/blockquote&gt;&lt;/blockquote&gt;" style="align=left;strokeColor=none;fillColor=none;spacingLeft=4;fontSize=14;verticalAlign=top;resizable=0;rotatable=0;part=1;html=1;" parent="4PVSJn8JbAyRpApGVOqt-80" vertex="1">
          <mxGeometry y="80" width="220" height="33" as="geometry" />
        </mxCell>
        <mxCell id="4PVSJn8JbAyRpApGVOqt-87" value="" style="endArrow=none;html=1;rounded=0;entryX=1;entryY=0;entryDx=0;entryDy=0;exitX=0;exitY=0;exitDx=0;exitDy=0;fontSize=14;fillColor=#ffe6cc;strokeColor=#d79b00;" parent="4PVSJn8JbAyRpApGVOqt-80" source="4PVSJn8JbAyRpApGVOqt-86" target="4PVSJn8JbAyRpApGVOqt-86" edge="1">
          <mxGeometry width="50" height="50" relative="1" as="geometry">
            <mxPoint x="50" y="103.08600000000001" as="sourcePoint" />
            <mxPoint x="50.960000000000036" y="40.00500000000011" as="targetPoint" />
          </mxGeometry>
        </mxCell>
        <mxCell id="4PVSJn8JbAyRpApGVOqt-88" value="" style="endArrow=ERzeroToMany;html=1;rounded=0;strokeColor=#d79b00;fontColor=#393C56;fillColor=#ffe6cc;startArrow=ERmandOne;startFill=0;endFill=0;fontSize=14;entryX=0.132;entryY=0.991;entryDx=0;entryDy=0;entryPerimeter=0;exitX=0.892;exitY=-0.012;exitDx=0;exitDy=0;exitPerimeter=0;" parent="1" source="37HL_in9zZdYbBOrax-n-2" target="4PVSJn8JbAyRpApGVOqt-86" edge="1">
          <mxGeometry width="50" height="50" relative="1" as="geometry">
            <mxPoint x="1919.8" y="6407.72" as="sourcePoint" />
            <mxPoint x="1919.8" y="6353.72" as="targetPoint" />
            <Array as="points" />
          </mxGeometry>
        </mxCell>
        <mxCell id="4PVSJn8JbAyRpApGVOqt-89" value="" style="endArrow=ERmandOne;html=1;rounded=0;strokeColor=#d79b00;fontColor=#393C56;fillColor=#ffe6cc;entryX=-0.001;entryY=0.414;entryDx=0;entryDy=0;startArrow=ERoneToMany;startFill=0;endFill=0;fontSize=14;entryPerimeter=0;" parent="1" source="4PVSJn8JbAyRpApGVOqt-83" edge="1">
          <mxGeometry width="50" height="50" relative="1" as="geometry">
            <mxPoint x="2119.8" y="6280.160000000001" as="sourcePoint" />
            <mxPoint x="2189.55" y="6280.412" as="targetPoint" />
          </mxGeometry>
        </mxCell>
        <mxCell id="fj8LiBWqjByb4cb_0KTL-1" value="" style="endArrow=ERzeroToOne;html=1;rounded=0;labelBackgroundColor=none;strokeColor=#d79b00;fontColor=default;startArrow=ERmandOne;startFill=0;endFill=0;fontSize=14;fillColor=#ffe6cc;exitX=0.479;exitY=1.01;exitDx=0;exitDy=0;exitPerimeter=0;entryX=0.841;entryY=0;entryDx=0;entryDy=0;entryPerimeter=0;" parent="1" source="arhX2NloKPXsOQHOqjrg-10" target="arhX2NloKPXsOQHOqjrg-13" edge="1">
          <mxGeometry width="50" height="50" relative="1" as="geometry">
            <mxPoint x="1117.55" y="6771.719999999999" as="sourcePoint" />
            <mxPoint x="1118.8" y="6877.72" as="targetPoint" />
            <Array as="points" />
          </mxGeometry>
        </mxCell>
        <mxCell id="2PIDgouFQKfPPlAAMYB2-17" value="" style="endArrow=ERzeroToMany;html=1;rounded=0;fontSize=12;startSize=8;endSize=8;curved=1;startArrow=ERmandOne;startFill=0;endFill=0;fillColor=#ffe6cc;strokeColor=#d79b00;exitX=0.996;exitY=0.386;exitDx=0;exitDy=0;exitPerimeter=0;entryX=0;entryY=0.5;entryDx=0;entryDy=0;" parent="1" source="4PVSJn8JbAyRpApGVOqt-39" target="arhX2NloKPXsOQHOqjrg-59" edge="1">
          <mxGeometry width="50" height="50" relative="1" as="geometry">
            <mxPoint x="2049.8" y="7182.16" as="sourcePoint" />
            <mxPoint x="2589.8" y="7186.72" as="targetPoint" />
          </mxGeometry>
        </mxCell>
        <mxCell id="2PIDgouFQKfPPlAAMYB2-20" value="" style="endArrow=ERmandOne;html=1;rounded=0;labelBackgroundColor=none;strokeColor=#d79b00;fontColor=default;startArrow=ERmandOne;startFill=0;endFill=0;fontSize=14;fillColor=#ffe6cc;entryX=0.598;entryY=0.001;entryDx=0;entryDy=0;entryPerimeter=0;exitX=-0.001;exitY=0.472;exitDx=0;exitDy=0;exitPerimeter=0;" parent="1" source="37HL_in9zZdYbBOrax-n-24" target="arhX2NloKPXsOQHOqjrg-69" edge="1">
          <mxGeometry width="50" height="50" relative="1" as="geometry">
            <mxPoint x="2619.8" y="6657.72" as="sourcePoint" />
            <mxPoint x="2399.8" y="6867.72" as="targetPoint" />
            <Array as="points">
              <mxPoint x="2399.8" y="6657.72" />
            </Array>
          </mxGeometry>
        </mxCell>
        <mxCell id="XWAyypIAAsVT7PaFlDFQ-8" value="" style="endArrow=ERmandOne;html=1;rounded=0;labelBackgroundColor=none;strokeColor=#d79b00;fontColor=default;startArrow=ERmandOne;startFill=0;endFill=0;fontSize=14;fillColor=#ffe6cc;exitX=0.357;exitY=1.013;exitDx=0;exitDy=0;exitPerimeter=0;entryX=0.523;entryY=0.002;entryDx=0;entryDy=0;entryPerimeter=0;" parent="1" source="arhX2NloKPXsOQHOqjrg-52" target="arhX2NloKPXsOQHOqjrg-55" edge="1">
          <mxGeometry width="50" height="50" relative="1" as="geometry">
            <mxPoint x="2772.05" y="7003.72" as="sourcePoint" />
            <mxPoint x="2769.7999999999993" y="7056.669999999999" as="targetPoint" />
            <Array as="points" />
          </mxGeometry>
        </mxCell>
        <mxCell id="XWAyypIAAsVT7PaFlDFQ-9" value="" style="endArrow=ERmandOne;html=1;rounded=0;labelBackgroundColor=none;strokeColor=#d79b00;fontColor=default;startArrow=ERoneToMany;startFill=0;endFill=0;fontSize=14;fillColor=#ffe6cc;exitX=0.659;exitY=1.033;exitDx=0;exitDy=0;exitPerimeter=0;entryX=0.157;entryY=0.003;entryDx=0;entryDy=0;entryPerimeter=0;" parent="1" source="37HL_in9zZdYbBOrax-n-27" target="arhX2NloKPXsOQHOqjrg-48" edge="1">
          <mxGeometry width="50" height="50" relative="1" as="geometry">
            <mxPoint x="2799.8" y="6767.72" as="sourcePoint" />
            <mxPoint x="2679.8" y="6807.72" as="targetPoint" />
            <Array as="points" />
          </mxGeometry>
        </mxCell>
        <mxCell id="2PIDgouFQKfPPlAAMYB2-22" value="" style="endArrow=ERoneToMany;html=1;rounded=0;labelBackgroundColor=none;strokeColor=#d79b00;fontColor=default;startArrow=ERmandOne;startFill=0;endFill=0;fontSize=14;fillColor=#ffe6cc;entryX=0.75;entryY=0;entryDx=0;entryDy=0;exitX=-0.001;exitY=0.807;exitDx=0;exitDy=0;exitPerimeter=0;" parent="1" source="37HL_in9zZdYbBOrax-n-24" target="37HL_in9zZdYbBOrax-n-9" edge="1">
          <mxGeometry width="50" height="50" relative="1" as="geometry">
            <mxPoint x="2639.8" y="6857.72" as="sourcePoint" />
            <mxPoint x="2119.8" y="6877.66" as="targetPoint" />
            <Array as="points">
              <mxPoint x="2020.8" y="6687.72" />
            </Array>
          </mxGeometry>
        </mxCell>
        <mxCell id="2PIDgouFQKfPPlAAMYB2-24" value="" style="endArrow=ERmandOne;html=1;rounded=0;labelBackgroundColor=none;strokeColor=#d79b00;fontColor=default;startArrow=ERmandOne;startFill=0;endFill=0;fontSize=14;fillColor=#ffe6cc;entryX=-0.004;entryY=0.14;entryDx=0;entryDy=0;entryPerimeter=0;exitX=1.001;exitY=0.226;exitDx=0;exitDy=0;exitPerimeter=0;" parent="1" source="4PVSJn8JbAyRpApGVOqt-39" target="arhX2NloKPXsOQHOqjrg-52" edge="1">
          <mxGeometry width="50" height="50" relative="1" as="geometry">
            <mxPoint x="2099.8" y="7237.72" as="sourcePoint" />
            <mxPoint x="2639.8" y="6888.136000000001" as="targetPoint" />
            <Array as="points">
              <mxPoint x="2559.8" y="7157.72" />
              <mxPoint x="2559.8" y="7027.72" />
              <mxPoint x="2559.8" y="6897.72" />
            </Array>
          </mxGeometry>
        </mxCell>
        <mxCell id="V_6NEVyAVQf_PwGsIwYk-26" value="SERVICE" style="shape=table;startSize=30;container=1;collapsible=1;childLayout=tableLayout;fixedRows=1;rowLines=0;fontStyle=1;align=center;resizeLast=1;labelBackgroundColor=none;fillColor=#F2CC8F;strokeColor=#E07A5F;fontColor=#393C56;fontSize=14;" parent="1" vertex="1">
          <mxGeometry x="699.8" y="6848.720000000002" width="140" height="131.27999999999884" as="geometry" />
        </mxCell>
        <mxCell id="V_6NEVyAVQf_PwGsIwYk-27" value="" style="shape=partialRectangle;collapsible=0;dropTarget=0;pointerEvents=0;fillColor=none;points=[[0,0.5],[1,0.5]];portConstraint=eastwest;top=0;left=0;right=0;bottom=1;labelBackgroundColor=none;strokeColor=#E07A5F;fontColor=#393C56;fontSize=14;" parent="V_6NEVyAVQf_PwGsIwYk-26" vertex="1">
          <mxGeometry y="30" width="140" height="43" as="geometry" />
        </mxCell>
        <mxCell id="V_6NEVyAVQf_PwGsIwYk-28" value="PK" style="shape=partialRectangle;overflow=hidden;connectable=0;fillColor=none;top=0;left=0;bottom=0;right=0;fontStyle=1;labelBackgroundColor=none;strokeColor=#E07A5F;fontColor=#393C56;fontSize=14;" parent="V_6NEVyAVQf_PwGsIwYk-27" vertex="1">
          <mxGeometry width="30" height="43" as="geometry">
            <mxRectangle width="30" height="43" as="alternateBounds" />
          </mxGeometry>
        </mxCell>
        <mxCell id="V_6NEVyAVQf_PwGsIwYk-29" value="Service_ID" style="shape=partialRectangle;overflow=hidden;connectable=0;fillColor=none;top=0;left=0;bottom=0;right=0;align=left;spacingLeft=6;fontStyle=5;labelBackgroundColor=none;strokeColor=#E07A5F;fontColor=#393C56;fontSize=14;" parent="V_6NEVyAVQf_PwGsIwYk-27" vertex="1">
          <mxGeometry x="30" width="110" height="43" as="geometry">
            <mxRectangle width="110" height="43" as="alternateBounds" />
          </mxGeometry>
        </mxCell>
        <mxCell id="V_6NEVyAVQf_PwGsIwYk-30" value="" style="shape=partialRectangle;collapsible=0;dropTarget=0;pointerEvents=0;fillColor=none;points=[[0,0.5],[1,0.5]];portConstraint=eastwest;top=0;left=0;right=0;bottom=0;labelBackgroundColor=none;strokeColor=#E07A5F;fontColor=#393C56;fontSize=14;" parent="V_6NEVyAVQf_PwGsIwYk-26" vertex="1">
          <mxGeometry y="73" width="140" height="58" as="geometry" />
        </mxCell>
        <mxCell id="V_6NEVyAVQf_PwGsIwYk-31" value="" style="shape=partialRectangle;overflow=hidden;connectable=0;fillColor=none;top=0;left=0;bottom=0;right=0;labelBackgroundColor=none;strokeColor=#E07A5F;fontColor=#393C56;fontSize=14;" parent="V_6NEVyAVQf_PwGsIwYk-30" vertex="1">
          <mxGeometry width="30" height="58" as="geometry">
            <mxRectangle width="30" height="58" as="alternateBounds" />
          </mxGeometry>
        </mxCell>
        <mxCell id="V_6NEVyAVQf_PwGsIwYk-32" value="Service_DesÂ &#xa;Price" style="shape=partialRectangle;overflow=hidden;connectable=0;fillColor=none;top=0;left=0;bottom=0;right=0;align=left;spacingLeft=6;labelBackgroundColor=none;strokeColor=#E07A5F;fontColor=#393C56;fontSize=14;" parent="V_6NEVyAVQf_PwGsIwYk-30" vertex="1">
          <mxGeometry x="30" width="110" height="58" as="geometry">
            <mxRectangle width="110" height="58" as="alternateBounds" />
          </mxGeometry>
        </mxCell>
        <mxCell id="XWAyypIAAsVT7PaFlDFQ-11" value="DEPARTMENT" style="shape=table;startSize=30;container=1;collapsible=1;childLayout=tableLayout;fixedRows=1;rowLines=0;fontStyle=1;align=center;resizeLast=1;labelBackgroundColor=none;fillColor=#F2CC8F;strokeColor=#E07A5F;fontColor=#393C56;fontSize=14;" parent="1" vertex="1">
          <mxGeometry x="1819.8" y="7378.72" width="250" height="135" as="geometry" />
        </mxCell>
        <mxCell id="XWAyypIAAsVT7PaFlDFQ-12" value="" style="shape=partialRectangle;collapsible=0;dropTarget=0;pointerEvents=0;fillColor=none;points=[[0,0.5],[1,0.5]];portConstraint=eastwest;top=0;left=0;right=0;bottom=1;labelBackgroundColor=none;strokeColor=#E07A5F;fontColor=#393C56;fontSize=14;" parent="XWAyypIAAsVT7PaFlDFQ-11" vertex="1">
          <mxGeometry y="30" width="250" height="30" as="geometry" />
        </mxCell>
        <mxCell id="XWAyypIAAsVT7PaFlDFQ-13" value="PK" style="shape=partialRectangle;overflow=hidden;connectable=0;fillColor=none;top=0;left=0;bottom=0;right=0;fontStyle=1;labelBackgroundColor=none;strokeColor=#E07A5F;fontColor=#393C56;fontSize=14;" parent="XWAyypIAAsVT7PaFlDFQ-12" vertex="1">
          <mxGeometry width="30" height="30" as="geometry">
            <mxRectangle width="30" height="30" as="alternateBounds" />
          </mxGeometry>
        </mxCell>
        <mxCell id="XWAyypIAAsVT7PaFlDFQ-14" value="Department_ID" style="shape=partialRectangle;overflow=hidden;connectable=0;fillColor=none;top=0;left=0;bottom=0;right=0;align=left;spacingLeft=6;fontStyle=5;labelBackgroundColor=none;strokeColor=#E07A5F;fontColor=#393C56;fontSize=14;" parent="XWAyypIAAsVT7PaFlDFQ-12" vertex="1">
          <mxGeometry x="30" width="220" height="30" as="geometry">
            <mxRectangle width="220" height="30" as="alternateBounds" />
          </mxGeometry>
        </mxCell>
        <mxCell id="XWAyypIAAsVT7PaFlDFQ-15" value="" style="shape=partialRectangle;collapsible=0;dropTarget=0;pointerEvents=0;fillColor=none;points=[[0,0.5],[1,0.5]];portConstraint=eastwest;top=0;left=0;right=0;bottom=0;labelBackgroundColor=none;strokeColor=#E07A5F;fontColor=#393C56;fontSize=14;" parent="XWAyypIAAsVT7PaFlDFQ-11" vertex="1">
          <mxGeometry y="60" width="250" height="75" as="geometry" />
        </mxCell>
        <mxCell id="XWAyypIAAsVT7PaFlDFQ-16" value="" style="shape=partialRectangle;overflow=hidden;connectable=0;fillColor=none;top=0;left=0;bottom=0;right=0;labelBackgroundColor=none;strokeColor=#E07A5F;fontColor=#393C56;fontSize=14;" parent="XWAyypIAAsVT7PaFlDFQ-15" vertex="1">
          <mxGeometry width="30" height="75" as="geometry">
            <mxRectangle width="30" height="75" as="alternateBounds" />
          </mxGeometry>
        </mxCell>
        <mxCell id="XWAyypIAAsVT7PaFlDFQ-17" value="Department_Name&#xa;Location&#xa;Manager_IDÂ " style="shape=partialRectangle;overflow=hidden;connectable=0;fillColor=none;top=0;left=0;bottom=0;right=0;align=left;spacingLeft=6;labelBackgroundColor=none;strokeColor=#E07A5F;fontColor=#393C56;fontSize=14;" parent="XWAyypIAAsVT7PaFlDFQ-15" vertex="1">
          <mxGeometry x="30" width="220" height="75" as="geometry">
            <mxRectangle width="220" height="75" as="alternateBounds" />
          </mxGeometry>
        </mxCell>
        <mxCell id="XWAyypIAAsVT7PaFlDFQ-18" value="" style="endArrow=ERoneToMany;html=1;rounded=0;startArrow=ERmandOne;startFill=0;endFill=0;labelBackgroundColor=none;strokeColor=#d79b00;fontColor=default;fontSize=14;fillColor=#ffe6cc;exitX=0.397;exitY=0;exitDx=0;exitDy=0;exitPerimeter=0;" parent="1" source="XWAyypIAAsVT7PaFlDFQ-11" edge="1">
          <mxGeometry width="50" height="50" relative="1" as="geometry">
            <mxPoint x="1919.8" y="7387.72" as="sourcePoint" />
            <mxPoint x="1919.8" y="7297.72" as="targetPoint" />
          </mxGeometry>
        </mxCell>
        <mxCell id="XWAyypIAAsVT7PaFlDFQ-19" value="" style="endArrow=ERmandOne;html=1;rounded=0;strokeColor=#d79b00;fontColor=#393C56;fillColor=#ffe6cc;startArrow=ERzeroToOne;startFill=0;endFill=0;fontSize=14;exitX=0.72;exitY=0.004;exitDx=0;exitDy=0;exitPerimeter=0;entryX=0.72;entryY=1.003;entryDx=0;entryDy=0;entryPerimeter=0;" parent="1" source="XWAyypIAAsVT7PaFlDFQ-11" target="4PVSJn8JbAyRpApGVOqt-39" edge="1">
          <mxGeometry width="50" height="50" relative="1" as="geometry">
            <mxPoint x="1998.3" y="7387.72" as="sourcePoint" />
            <mxPoint x="1999.8" y="7296.37" as="targetPoint" />
          </mxGeometry>
        </mxCell>
        <mxCell id="V_6NEVyAVQf_PwGsIwYk-33" value="" style="endArrow=ERmandOne;html=1;rounded=0;labelBackgroundColor=none;strokeColor=#d79b00;fontColor=default;startArrow=ERzeroToMany;startFill=0;endFill=0;fontSize=14;fillColor=#ffe6cc;exitX=0.41;exitY=1.013;exitDx=0;exitDy=0;exitPerimeter=0;entryX=0.356;entryY=-0.004;entryDx=0;entryDy=0;entryPerimeter=0;" parent="1" source="V_6NEVyAVQf_PwGsIwYk-54" target="V_6NEVyAVQf_PwGsIwYk-26" edge="1">
          <mxGeometry width="50" height="50" relative="1" as="geometry">
            <mxPoint x="880.8" y="6614.84" as="sourcePoint" />
            <mxPoint x="883.8" y="6672.56" as="targetPoint" />
            <Array as="points" />
          </mxGeometry>
        </mxCell>
        <mxCell id="2PIDgouFQKfPPlAAMYB2-27" value="" style="endArrow=ERmandOne;html=1;rounded=0;labelBackgroundColor=none;strokeColor=#d79b00;fontColor=default;startArrow=ERzeroToMany;startFill=0;endFill=0;fontSize=14;fillColor=#ffe6cc;entryX=0.401;entryY=-0.009;entryDx=0;entryDy=0;entryPerimeter=0;exitX=0.001;exitY=0.773;exitDx=0;exitDy=0;exitPerimeter=0;" parent="1" source="arhX2NloKPXsOQHOqjrg-59" target="4PVSJn8JbAyRpApGVOqt-28" edge="1">
          <mxGeometry width="50" height="50" relative="1" as="geometry">
            <mxPoint x="2759.8" y="7237.72" as="sourcePoint" />
            <mxPoint x="1910.8" y="8030.16" as="targetPoint" />
            <Array as="points">
              <mxPoint x="2399.8" y="7217.72" />
            </Array>
          </mxGeometry>
        </mxCell>
        <mxCell id="V_6NEVyAVQf_PwGsIwYk-56" value="" style="endArrow=ERzeroToMany;html=1;rounded=0;labelBackgroundColor=none;strokeColor=#d79b00;fontColor=default;startArrow=ERmandOne;startFill=0;endFill=0;fontSize=14;fillColor=#ffe6cc;entryX=0.997;entryY=0.892;entryDx=0;entryDy=0;entryPerimeter=0;exitX=-0.009;exitY=0.846;exitDx=0;exitDy=0;exitPerimeter=0;" parent="1" source="arhX2NloKPXsOQHOqjrg-10" target="V_6NEVyAVQf_PwGsIwYk-51" edge="1">
          <mxGeometry width="50" height="50" relative="1" as="geometry">
            <mxPoint x="1237.8" y="6654.72" as="sourcePoint" />
            <mxPoint x="920.8" y="6788.72" as="targetPoint" />
            <Array as="points" />
          </mxGeometry>
        </mxCell>
        <mxCell id="V_6NEVyAVQf_PwGsIwYk-48" value="REPAIR_ORDER_SERVICE" style="swimlane;childLayout=stackLayout;horizontal=1;startSize=43;horizontalStack=0;rounded=1;fontSize=14;fontStyle=1;strokeWidth=2;resizeParent=0;resizeLast=1;shadow=0;dashed=0;align=center;arcSize=4;whiteSpace=wrap;html=1;fillColor=#ffe6cc;strokeColor=#d79b00;" parent="1" vertex="1">
          <mxGeometry x="659.8" y="6631.719999999999" width="220" height="140" as="geometry" />
        </mxCell>
        <mxCell id="V_6NEVyAVQf_PwGsIwYk-49" value="" style="endArrow=none;html=1;rounded=0;entryX=0.226;entryY=-0.014;entryDx=0;entryDy=0;entryPerimeter=0;exitX=0.224;exitY=0.968;exitDx=0;exitDy=0;exitPerimeter=0;fontSize=14;fillColor=#ffe6cc;strokeColor=#d79b00;" parent="V_6NEVyAVQf_PwGsIwYk-48" source="V_6NEVyAVQf_PwGsIwYk-54" target="V_6NEVyAVQf_PwGsIwYk-51" edge="1">
          <mxGeometry width="50" height="50" relative="1" as="geometry">
            <mxPoint x="39.99999999999994" y="93.08599999999997" as="sourcePoint" />
            <mxPoint x="40.95999999999998" y="30.005000000000056" as="targetPoint" />
          </mxGeometry>
        </mxCell>
        <mxCell id="V_6NEVyAVQf_PwGsIwYk-50" value="" style="shape=table;startSize=0;container=1;collapsible=1;childLayout=tableLayout;fixedRows=1;rowLines=0;fontStyle=0;align=center;resizeLast=1;strokeColor=none;fillColor=none;collapsible=0;fontSize=14;" parent="V_6NEVyAVQf_PwGsIwYk-48" vertex="1">
          <mxGeometry y="43" width="220" height="67" as="geometry" />
        </mxCell>
        <mxCell id="V_6NEVyAVQf_PwGsIwYk-51" value="" style="shape=tableRow;horizontal=0;startSize=0;swimlaneHead=0;swimlaneBody=0;fillColor=none;collapsible=0;dropTarget=0;points=[[0,0.5],[1,0.5]];portConstraint=eastwest;top=0;left=0;right=0;bottom=1;fontSize=14;" parent="V_6NEVyAVQf_PwGsIwYk-50" vertex="1">
          <mxGeometry width="220" height="67" as="geometry" />
        </mxCell>
        <mxCell id="V_6NEVyAVQf_PwGsIwYk-52" value="PK" style="shape=partialRectangle;connectable=0;fillColor=none;top=0;left=0;bottom=0;right=0;fontStyle=1;overflow=hidden;whiteSpace=wrap;html=1;fontSize=14;" parent="V_6NEVyAVQf_PwGsIwYk-51" vertex="1">
          <mxGeometry width="50" height="67" as="geometry">
            <mxRectangle width="50" height="67" as="alternateBounds" />
          </mxGeometry>
        </mxCell>
        <mxCell id="V_6NEVyAVQf_PwGsIwYk-53" value="&lt;div style=&quot;font-size: 14px;&quot;&gt;&lt;span style=&quot;color: rgb(57, 60, 86); text-wrap: nowrap; background-color: initial;&quot;&gt;ROrder_ID&lt;/span&gt;&lt;/div&gt;&lt;div style=&quot;font-size: 14px;&quot;&gt;&lt;span style=&quot;color: rgb(57, 60, 86); text-wrap: nowrap; background-color: initial;&quot;&gt;Service_ID&lt;/span&gt;&lt;/div&gt;" style="shape=partialRectangle;connectable=0;fillColor=none;top=0;left=0;bottom=0;right=0;align=left;spacingLeft=6;fontStyle=5;overflow=hidden;whiteSpace=wrap;html=1;fontSize=14;" parent="V_6NEVyAVQf_PwGsIwYk-51" vertex="1">
          <mxGeometry x="50" width="170" height="67" as="geometry">
            <mxRectangle width="170" height="67" as="alternateBounds" />
          </mxGeometry>
        </mxCell>
        <mxCell id="V_6NEVyAVQf_PwGsIwYk-54" value="&lt;blockquote style=&quot;margin: 0px 0px 0px 40px; border: none; padding: 0px; font-size: 14px;&quot;&gt;&lt;blockquote style=&quot;margin: 0px 0px 0px 40px; border: none; padding: 0px; font-size: 14px;&quot;&gt;&lt;span style=&quot;color: rgb(57, 60, 86);&quot;&gt;Price&lt;/span&gt;&lt;br&gt;&lt;/blockquote&gt;&lt;/blockquote&gt;" style="align=left;strokeColor=none;fillColor=none;spacingLeft=4;fontSize=14;verticalAlign=top;resizable=0;rotatable=0;part=1;html=1;" parent="V_6NEVyAVQf_PwGsIwYk-48" vertex="1">
          <mxGeometry y="110" width="220" height="30" as="geometry" />
        </mxCell>
        <mxCell id="V_6NEVyAVQf_PwGsIwYk-55" value="" style="endArrow=none;html=1;rounded=0;entryX=1;entryY=0;entryDx=0;entryDy=0;exitX=0;exitY=0;exitDx=0;exitDy=0;fontSize=14;fillColor=#ffe6cc;strokeColor=#d79b00;" parent="V_6NEVyAVQf_PwGsIwYk-48" source="V_6NEVyAVQf_PwGsIwYk-54" target="V_6NEVyAVQf_PwGsIwYk-54" edge="1">
          <mxGeometry width="50" height="50" relative="1" as="geometry">
            <mxPoint x="50" y="103.08600000000001" as="sourcePoint" />
            <mxPoint x="50.960000000000036" y="40.00500000000011" as="targetPoint" />
          </mxGeometry>
        </mxCell>
        <mxCell id="arhX2NloKPXsOQHOqjrg-20" value="SPARE_PART_DELIVERY_NOTE" style="shape=table;startSize=35;container=1;collapsible=1;childLayout=tableLayout;fixedRows=1;rowLines=0;fontStyle=1;align=center;resizeLast=1;labelBackgroundColor=none;fillColor=#F2CC8F;strokeColor=#E07A5F;fontColor=#393C56;fontSize=14;" parent="1" vertex="1">
          <mxGeometry x="999.8" y="6339.72" width="250" height="158.5" as="geometry" />
        </mxCell>
        <mxCell id="arhX2NloKPXsOQHOqjrg-21" value="" style="shape=partialRectangle;collapsible=0;dropTarget=0;pointerEvents=0;fillColor=none;points=[[0,0.5],[1,0.5]];portConstraint=eastwest;top=0;left=0;right=0;bottom=1;labelBackgroundColor=none;strokeColor=#E07A5F;fontColor=#393C56;fontSize=14;" parent="arhX2NloKPXsOQHOqjrg-20" vertex="1">
          <mxGeometry y="35" width="250" height="43" as="geometry" />
        </mxCell>
        <mxCell id="arhX2NloKPXsOQHOqjrg-22" value="PK" style="shape=partialRectangle;overflow=hidden;connectable=0;fillColor=none;top=0;left=0;bottom=0;right=0;fontStyle=1;labelBackgroundColor=none;strokeColor=#E07A5F;fontColor=#393C56;fontSize=14;" parent="arhX2NloKPXsOQHOqjrg-21" vertex="1">
          <mxGeometry width="30" height="43" as="geometry">
            <mxRectangle width="30" height="43" as="alternateBounds" />
          </mxGeometry>
        </mxCell>
        <mxCell id="arhX2NloKPXsOQHOqjrg-23" value="SNote_ID" style="shape=partialRectangle;overflow=hidden;connectable=0;fillColor=none;top=0;left=0;bottom=0;right=0;align=left;spacingLeft=6;fontStyle=5;labelBackgroundColor=none;strokeColor=#E07A5F;fontColor=#393C56;fontSize=14;" parent="arhX2NloKPXsOQHOqjrg-21" vertex="1">
          <mxGeometry x="30" width="220" height="43" as="geometry">
            <mxRectangle width="220" height="43" as="alternateBounds" />
          </mxGeometry>
        </mxCell>
        <mxCell id="arhX2NloKPXsOQHOqjrg-24" value="" style="shape=partialRectangle;collapsible=0;dropTarget=0;pointerEvents=0;fillColor=none;points=[[0,0.5],[1,0.5]];portConstraint=eastwest;top=0;left=0;right=0;bottom=0;labelBackgroundColor=none;strokeColor=#E07A5F;fontColor=#393C56;fontSize=14;" parent="arhX2NloKPXsOQHOqjrg-20" vertex="1">
          <mxGeometry y="78" width="250" height="80" as="geometry" />
        </mxCell>
        <mxCell id="arhX2NloKPXsOQHOqjrg-25" value="" style="shape=partialRectangle;overflow=hidden;connectable=0;fillColor=none;top=0;left=0;bottom=0;right=0;labelBackgroundColor=none;strokeColor=#E07A5F;fontColor=#393C56;fontSize=14;" parent="arhX2NloKPXsOQHOqjrg-24" vertex="1">
          <mxGeometry width="30" height="80" as="geometry">
            <mxRectangle width="30" height="80" as="alternateBounds" />
          </mxGeometry>
        </mxCell>
        <mxCell id="arhX2NloKPXsOQHOqjrg-26" value="á»nventory_ID&#xa;Employee_ID&#xa;Date&#xa;ROrder_ID" style="shape=partialRectangle;overflow=hidden;connectable=0;fillColor=none;top=0;left=0;bottom=0;right=0;align=left;spacingLeft=6;labelBackgroundColor=none;strokeColor=#E07A5F;fontColor=#393C56;fontSize=14;" parent="arhX2NloKPXsOQHOqjrg-24" vertex="1">
          <mxGeometry x="30" width="220" height="80" as="geometry">
            <mxRectangle width="220" height="80" as="alternateBounds" />
          </mxGeometry>
        </mxCell>
        <mxCell id="V_6NEVyAVQf_PwGsIwYk-88" value="" style="endArrow=ERzeroToMany;html=1;rounded=0;labelBackgroundColor=none;strokeColor=#d79b00;fontColor=default;startArrow=ERmandOne;startFill=0;endFill=0;fontSize=14;fillColor=#ffe6cc;exitX=0.17;exitY=0.011;exitDx=0;exitDy=0;exitPerimeter=0;entryX=0.895;entryY=1.002;entryDx=0;entryDy=0;entryPerimeter=0;" parent="1" source="37HL_in9zZdYbBOrax-n-16" target="V_6NEVyAVQf_PwGsIwYk-110" edge="1">
          <mxGeometry width="50" height="50" relative="1" as="geometry">
            <mxPoint x="1589.8" y="6787.72" as="sourcePoint" />
            <mxPoint x="1599.8" y="6437.72" as="targetPoint" />
            <Array as="points" />
          </mxGeometry>
        </mxCell>
        <mxCell id="V_6NEVyAVQf_PwGsIwYk-94" value="" style="endArrow=ERzeroToMany;html=1;rounded=0;labelBackgroundColor=none;strokeColor=#d79b00;fontColor=default;startArrow=ERzeroToOne;startFill=0;endFill=0;fontSize=14;fillColor=#ffe6cc;exitX=-0.004;exitY=0.178;exitDx=0;exitDy=0;entryX=0.952;entryY=1.007;entryDx=0;entryDy=0;entryPerimeter=0;exitPerimeter=0;" parent="1" source="arhX2NloKPXsOQHOqjrg-73" target="arhX2NloKPXsOQHOqjrg-10" edge="1">
          <mxGeometry width="50" height="50" relative="1" as="geometry">
            <mxPoint x="2189.8" y="6997.21" as="sourcePoint" />
            <mxPoint x="1109.8" y="6997.72" as="targetPoint" />
            <Array as="points">
              <mxPoint x="1239.8" y="6977.72" />
            </Array>
          </mxGeometry>
        </mxCell>
        <mxCell id="V_6NEVyAVQf_PwGsIwYk-104" value="&lt;span style=&quot;color: rgb(57, 60, 86); text-wrap: nowrap;&quot;&gt;DETAILED_SPARE_PART_&lt;/span&gt;&lt;span style=&quot;color: rgb(57, 60, 86); text-wrap: nowrap;&quot;&gt;DELIVERY&lt;/span&gt;&lt;span style=&quot;color: rgb(57, 60, 86); text-wrap: nowrap;&quot;&gt;_NOTE&lt;/span&gt;" style="swimlane;childLayout=stackLayout;horizontal=1;startSize=43;horizontalStack=0;rounded=1;fontSize=14;fontStyle=1;strokeWidth=2;resizeParent=0;resizeLast=1;shadow=0;dashed=0;align=center;arcSize=4;whiteSpace=wrap;html=1;fillColor=#ffe6cc;strokeColor=#d79b00;" parent="1" vertex="1">
          <mxGeometry x="1322.8" y="6330.72" width="310" height="140" as="geometry" />
        </mxCell>
        <mxCell id="V_6NEVyAVQf_PwGsIwYk-106" value="" style="shape=table;startSize=0;container=1;collapsible=1;childLayout=tableLayout;fixedRows=1;rowLines=0;fontStyle=0;align=center;resizeLast=1;strokeColor=none;fillColor=none;collapsible=0;fontSize=14;" parent="V_6NEVyAVQf_PwGsIwYk-104" vertex="1">
          <mxGeometry y="43" width="310" height="57" as="geometry" />
        </mxCell>
        <mxCell id="V_6NEVyAVQf_PwGsIwYk-107" value="" style="shape=tableRow;horizontal=0;startSize=0;swimlaneHead=0;swimlaneBody=0;fillColor=none;collapsible=0;dropTarget=0;points=[[0,0.5],[1,0.5]];portConstraint=eastwest;top=0;left=0;right=0;bottom=1;fontSize=14;" parent="V_6NEVyAVQf_PwGsIwYk-106" vertex="1">
          <mxGeometry width="310" height="57" as="geometry" />
        </mxCell>
        <mxCell id="V_6NEVyAVQf_PwGsIwYk-108" value="PK" style="shape=partialRectangle;connectable=0;fillColor=none;top=0;left=0;bottom=0;right=0;fontStyle=1;overflow=hidden;whiteSpace=wrap;html=1;fontSize=14;" parent="V_6NEVyAVQf_PwGsIwYk-107" vertex="1">
          <mxGeometry width="80" height="57" as="geometry">
            <mxRectangle width="80" height="57" as="alternateBounds" />
          </mxGeometry>
        </mxCell>
        <mxCell id="V_6NEVyAVQf_PwGsIwYk-109" value="&lt;div style=&quot;font-size: 14px;&quot;&gt;&lt;font color=&quot;#393c56&quot;&gt;&lt;span style=&quot;text-wrap: nowrap;&quot;&gt;SNote_ID&lt;/span&gt;&lt;/font&gt;&lt;/div&gt;&lt;div style=&quot;font-size: 14px;&quot;&gt;&lt;font color=&quot;#393c56&quot;&gt;&lt;span style=&quot;text-wrap: nowrap;&quot;&gt;SProduct_ID&lt;/span&gt;&lt;/font&gt;&lt;/div&gt;" style="shape=partialRectangle;connectable=0;fillColor=none;top=0;left=0;bottom=0;right=0;align=left;spacingLeft=6;fontStyle=5;overflow=hidden;whiteSpace=wrap;html=1;fontSize=14;" parent="V_6NEVyAVQf_PwGsIwYk-107" vertex="1">
          <mxGeometry x="80" width="230" height="57" as="geometry">
            <mxRectangle width="230" height="57" as="alternateBounds" />
          </mxGeometry>
        </mxCell>
        <mxCell id="V_6NEVyAVQf_PwGsIwYk-110" value="&lt;blockquote style=&quot;margin: 0px 0px 0px 40px; border: none; padding: 0px; font-size: 14px;&quot;&gt;&lt;blockquote style=&quot;margin: 0px 0px 0px 40px; border: none; padding: 0px; font-size: 14px;&quot;&gt;Quantity&lt;/blockquote&gt;&lt;blockquote style=&quot;margin: 0px 0px 0px 40px; border: none; padding: 0px; font-size: 14px;&quot;&gt;Price&lt;/blockquote&gt;&lt;/blockquote&gt;" style="align=left;strokeColor=none;fillColor=none;spacingLeft=4;fontSize=14;verticalAlign=top;resizable=0;rotatable=0;part=1;html=1;" parent="V_6NEVyAVQf_PwGsIwYk-104" vertex="1">
          <mxGeometry y="100" width="310" height="40" as="geometry" />
        </mxCell>
        <mxCell id="V_6NEVyAVQf_PwGsIwYk-111" value="" style="endArrow=none;html=1;rounded=0;entryX=1;entryY=0;entryDx=0;entryDy=0;exitX=0;exitY=0;exitDx=0;exitDy=0;fontSize=14;fillColor=#ffe6cc;strokeColor=#d79b00;" parent="V_6NEVyAVQf_PwGsIwYk-104" source="V_6NEVyAVQf_PwGsIwYk-110" target="V_6NEVyAVQf_PwGsIwYk-110" edge="1">
          <mxGeometry width="50" height="50" relative="1" as="geometry">
            <mxPoint x="50" y="103.08600000000001" as="sourcePoint" />
            <mxPoint x="50.960000000000036" y="40.00500000000011" as="targetPoint" />
          </mxGeometry>
        </mxCell>
        <mxCell id="V_6NEVyAVQf_PwGsIwYk-105" value="" style="endArrow=none;html=1;rounded=0;entryX=0.226;entryY=-0.014;entryDx=0;entryDy=0;entryPerimeter=0;exitX=0.224;exitY=0.968;exitDx=0;exitDy=0;exitPerimeter=0;fontSize=14;fillColor=#ffe6cc;strokeColor=#d79b00;" parent="V_6NEVyAVQf_PwGsIwYk-104" source="V_6NEVyAVQf_PwGsIwYk-110" target="V_6NEVyAVQf_PwGsIwYk-107" edge="1">
          <mxGeometry width="50" height="50" relative="1" as="geometry">
            <mxPoint x="39.99999999999994" y="93.08600000000024" as="sourcePoint" />
            <mxPoint x="40.95999999999998" y="30.00500000000011" as="targetPoint" />
          </mxGeometry>
        </mxCell>
        <mxCell id="V_6NEVyAVQf_PwGsIwYk-115" value="" style="endArrow=ERoneToMany;html=1;rounded=0;labelBackgroundColor=none;strokeColor=#d79b00;fontColor=default;startArrow=ERmandOne;startFill=0;endFill=0;fontSize=14;fillColor=#ffe6cc;exitX=1.003;exitY=0.995;exitDx=0;exitDy=0;exitPerimeter=0;entryX=-0.002;entryY=0.766;entryDx=0;entryDy=0;entryPerimeter=0;" parent="1" source="arhX2NloKPXsOQHOqjrg-21" target="V_6NEVyAVQf_PwGsIwYk-107" edge="1">
          <mxGeometry width="50" height="50" relative="1" as="geometry">
            <mxPoint x="1329.7999999999995" y="6377.72" as="sourcePoint" />
            <mxPoint x="1379.8" y="6377.72" as="targetPoint" />
            <Array as="points" />
          </mxGeometry>
        </mxCell>
        <mxCell id="V_6NEVyAVQf_PwGsIwYk-116" value="" style="endArrow=ERmandOne;html=1;rounded=0;labelBackgroundColor=none;strokeColor=#d79b00;fontColor=default;startArrow=ERzeroToOne;startFill=0;endFill=0;fontSize=14;fillColor=#ffe6cc;exitX=0.479;exitY=1.01;exitDx=0;exitDy=0;exitPerimeter=0;entryX=0.479;entryY=-0.003;entryDx=0;entryDy=0;entryPerimeter=0;" parent="1" source="arhX2NloKPXsOQHOqjrg-24" target="arhX2NloKPXsOQHOqjrg-6" edge="1">
          <mxGeometry width="50" height="50" relative="1" as="geometry">
            <mxPoint x="1054.8" y="6493.72" as="sourcePoint" />
            <mxPoint x="1119.8" y="6537.72" as="targetPoint" />
            <Array as="points" />
          </mxGeometry>
        </mxCell>
        <mxCell id="voe3X4Agnj3QuLN9B8k3-1" value="" style="endArrow=none;html=1;rounded=0;fontSize=12;startSize=8;endSize=8;curved=1;fillColor=#ffe6cc;strokeColor=#d79b00;entryX=0.456;entryY=1.005;entryDx=0;entryDy=0;entryPerimeter=0;" parent="1" target="37HL_in9zZdYbBOrax-n-6" edge="1">
          <mxGeometry width="50" height="50" relative="1" as="geometry">
            <mxPoint x="1809.8" y="6677.72" as="sourcePoint" />
            <mxPoint x="1807.8" y="6596.72" as="targetPoint" />
          </mxGeometry>
        </mxCell>
        <mxCell id="voe3X4Agnj3QuLN9B8k3-2" value="" style="endArrow=none;html=1;rounded=0;fontSize=12;startSize=8;endSize=8;curved=1;fillColor=#ffe6cc;strokeColor=#d79b00;entryX=0.535;entryY=1.032;entryDx=0;entryDy=0;entryPerimeter=0;" parent="1" target="37HL_in9zZdYbBOrax-n-6" edge="1">
          <mxGeometry width="50" height="50" relative="1" as="geometry">
            <mxPoint x="1829.8" y="6677.72" as="sourcePoint" />
            <mxPoint x="1829.8" y="6597.72" as="targetPoint" />
            <Array as="points">
              <mxPoint x="1829.8" y="6649.72" />
            </Array>
          </mxGeometry>
        </mxCell>
        <mxCell id="28ofZOFKjiQ8OkA5-Ff6-3" value="" style="endArrow=ERzeroToMany;html=1;rounded=0;labelBackgroundColor=none;strokeColor=#d79b00;fontColor=default;startArrow=ERmandOne;startFill=0;endFill=0;fontSize=14;fillColor=#ffe6cc;exitX=0;exitY=0.5;exitDx=0;exitDy=0;entryX=0.797;entryY=1.004;entryDx=0;entryDy=0;entryPerimeter=0;" parent="1" source="4PVSJn8JbAyRpApGVOqt-39" target="arhX2NloKPXsOQHOqjrg-10" edge="1">
          <mxGeometry width="50" height="50" relative="1" as="geometry">
            <mxPoint x="1786.8" y="7205.72" as="sourcePoint" />
            <mxPoint x="1411.8" y="6655.72" as="targetPoint" />
            <Array as="points">
              <mxPoint x="1626.8" y="7205.72" />
              <mxPoint x="1199.8" y="7207.72" />
            </Array>
          </mxGeometry>
        </mxCell>
        <mxCell id="IXkmytif1bYwkih1Pq0B-1" value="" style="endArrow=ERoneToMany;html=1;rounded=0;strokeColor=#d79b00;fontColor=#393C56;fillColor=#ffe6cc;startArrow=ERmandOne;startFill=0;endFill=0;fontSize=14;exitX=-0.007;exitY=0.014;exitDx=0;exitDy=0;exitPerimeter=0;entryX=0.566;entryY=-0.011;entryDx=0;entryDy=0;entryPerimeter=0;" parent="1" source="9Vi4DtW_JoVe9wqMOlgI-5" target="arhX2NloKPXsOQHOqjrg-20" edge="1">
          <mxGeometry width="50" height="50" relative="1" as="geometry">
            <mxPoint x="1086.8" y="6209.56" as="sourcePoint" />
            <mxPoint x="1068.8" y="6265.72" as="targetPoint" />
            <Array as="points">
              <mxPoint x="1139.8" y="6177.72" />
            </Array>
          </mxGeometry>
        </mxCell>
        <mxCell id="PMps95xSEUCFMLBY_XNb-1" style="edgeStyle=orthogonalEdgeStyle;rounded=0;orthogonalLoop=1;jettySize=auto;html=1;fillColor=#ffe6cc;strokeColor=#d79b00;startArrow=ERmandOne;startFill=0;endArrow=ERzeroToMany;endFill=0;entryX=0.882;entryY=0.003;entryDx=0;entryDy=0;entryPerimeter=0;" parent="1" source="9Vi4DtW_JoVe9wqMOlgI-2" target="arhX2NloKPXsOQHOqjrg-48" edge="1">
          <mxGeometry relative="1" as="geometry">
            <mxPoint x="2899.8" y="6807.72" as="targetPoint" />
            <mxPoint x="1809.8" y="6147.72" as="sourcePoint" />
            <Array as="points">
              <mxPoint x="2900.8" y="6155.72" />
            </Array>
          </mxGeometry>
        </mxCell>
        <mxCell id="c4D9N44BwyF08n3zPg5p-1" style="edgeStyle=orthogonalEdgeStyle;rounded=0;orthogonalLoop=1;jettySize=auto;html=1;fillColor=#ffe6cc;strokeColor=#d79b00;startArrow=ERzeroToMany;startFill=0;endArrow=ERmandOne;endFill=0;entryX=-0.01;entryY=0.365;entryDx=0;entryDy=0;entryPerimeter=0;exitX=0.007;exitY=0.253;exitDx=0;exitDy=0;exitPerimeter=0;" parent="1" source="arhX2NloKPXsOQHOqjrg-24" edge="1">
          <mxGeometry relative="1" as="geometry">
            <mxPoint x="1824.3" y="7157.56" as="targetPoint" />
            <mxPoint x="957.8" y="6437.72" as="sourcePoint" />
            <Array as="points">
              <mxPoint x="599.8" y="6437.72" />
              <mxPoint x="599.8" y="7157.72" />
            </Array>
          </mxGeometry>
        </mxCell>
        <mxCell id="S2El1OMhgtDXLihTYKp4-9" value="" style="endArrow=ERoneToMany;html=1;rounded=0;labelBackgroundColor=none;strokeColor=#d79b00;fontColor=default;startArrow=ERmandOne;startFill=0;endFill=0;fontSize=14;fillColor=#ffe6cc;entryX=0.442;entryY=0.009;entryDx=0;entryDy=0;exitX=0.839;exitY=1.015;exitDx=0;exitDy=0;exitPerimeter=0;entryPerimeter=0;" parent="1" source="9Vi4DtW_JoVe9wqMOlgI-5" target="S2El1OMhgtDXLihTYKp4-1" edge="1">
          <mxGeometry width="50" height="50" relative="1" as="geometry">
            <mxPoint x="1757.8" y="6217.72" as="sourcePoint" />
            <mxPoint x="1759.8" y="6417.72" as="targetPoint" />
            <Array as="points" />
          </mxGeometry>
        </mxCell>
        <mxCell id="S2El1OMhgtDXLihTYKp4-1" value="&lt;b&gt;INVENTORY_PRODUCT&lt;/b&gt;" style="swimlane;childLayout=stackLayout;horizontal=1;startSize=43;horizontalStack=0;rounded=1;fontSize=14;fontStyle=1;strokeWidth=2;resizeParent=0;resizeLast=1;shadow=0;dashed=0;align=center;arcSize=4;whiteSpace=wrap;html=1;fillColor=#ffe6cc;strokeColor=#d79b00;" parent="1" vertex="1">
          <mxGeometry x="1659.8" y="6256.22" width="220" height="113" as="geometry" />
        </mxCell>
        <mxCell id="S2El1OMhgtDXLihTYKp4-2" value="" style="endArrow=none;html=1;rounded=0;entryX=0.226;entryY=-0.014;entryDx=0;entryDy=0;entryPerimeter=0;exitX=0.224;exitY=0.968;exitDx=0;exitDy=0;exitPerimeter=0;fontSize=14;fillColor=#ffe6cc;strokeColor=#d79b00;" parent="S2El1OMhgtDXLihTYKp4-1" source="S2El1OMhgtDXLihTYKp4-7" target="S2El1OMhgtDXLihTYKp4-4" edge="1">
          <mxGeometry width="50" height="50" relative="1" as="geometry">
            <mxPoint x="39.99999999999994" y="93.08599999999997" as="sourcePoint" />
            <mxPoint x="40.95999999999998" y="30.005000000000056" as="targetPoint" />
          </mxGeometry>
        </mxCell>
        <mxCell id="S2El1OMhgtDXLihTYKp4-3" value="" style="shape=table;startSize=0;container=1;collapsible=1;childLayout=tableLayout;fixedRows=1;rowLines=0;fontStyle=0;align=center;resizeLast=1;strokeColor=none;fillColor=none;collapsible=0;fontSize=14;" parent="S2El1OMhgtDXLihTYKp4-1" vertex="1">
          <mxGeometry y="43" width="220" height="37" as="geometry" />
        </mxCell>
        <mxCell id="S2El1OMhgtDXLihTYKp4-4" value="" style="shape=tableRow;horizontal=0;startSize=0;swimlaneHead=0;swimlaneBody=0;fillColor=none;collapsible=0;dropTarget=0;points=[[0,0.5],[1,0.5]];portConstraint=eastwest;top=0;left=0;right=0;bottom=1;fontSize=14;" parent="S2El1OMhgtDXLihTYKp4-3" vertex="1">
          <mxGeometry width="220" height="37" as="geometry" />
        </mxCell>
        <mxCell id="S2El1OMhgtDXLihTYKp4-5" value="PK" style="shape=partialRectangle;connectable=0;fillColor=none;top=0;left=0;bottom=0;right=0;fontStyle=1;overflow=hidden;whiteSpace=wrap;html=1;fontSize=14;" parent="S2El1OMhgtDXLihTYKp4-4" vertex="1">
          <mxGeometry width="50" height="37" as="geometry">
            <mxRectangle width="50" height="37" as="alternateBounds" />
          </mxGeometry>
        </mxCell>
        <mxCell id="S2El1OMhgtDXLihTYKp4-6" value="&lt;div style=&quot;font-size: 14px;&quot;&gt;INVENTORY&lt;/div&gt;&lt;div style=&quot;font-size: 14px;&quot;&gt;Product_ID&lt;/div&gt;" style="shape=partialRectangle;connectable=0;fillColor=none;top=0;left=0;bottom=0;right=0;align=left;spacingLeft=6;fontStyle=5;overflow=hidden;whiteSpace=wrap;html=1;fontSize=14;" parent="S2El1OMhgtDXLihTYKp4-4" vertex="1">
          <mxGeometry x="50" width="170" height="37" as="geometry">
            <mxRectangle width="170" height="37" as="alternateBounds" />
          </mxGeometry>
        </mxCell>
        <mxCell id="S2El1OMhgtDXLihTYKp4-7" value="&lt;blockquote style=&quot;margin: 0px 0px 0px 40px; border: none; padding: 0px; font-size: 14px;&quot;&gt;&lt;blockquote style=&quot;margin: 0px 0px 0px 40px; border: none; padding: 0px; font-size: 14px;&quot;&gt;Quantity&lt;/blockquote&gt;&lt;blockquote style=&quot;margin: 0px 0px 0px 40px; border: none; padding: 0px; font-size: 14px;&quot;&gt;&lt;br&gt;&lt;/blockquote&gt;&lt;/blockquote&gt;" style="align=left;strokeColor=none;fillColor=none;spacingLeft=4;fontSize=14;verticalAlign=top;resizable=0;rotatable=0;part=1;html=1;" parent="S2El1OMhgtDXLihTYKp4-1" vertex="1">
          <mxGeometry y="80" width="220" height="33" as="geometry" />
        </mxCell>
        <mxCell id="S2El1OMhgtDXLihTYKp4-8" value="" style="endArrow=none;html=1;rounded=0;entryX=1;entryY=0;entryDx=0;entryDy=0;exitX=0;exitY=0;exitDx=0;exitDy=0;fontSize=14;fillColor=#ffe6cc;strokeColor=#d79b00;" parent="S2El1OMhgtDXLihTYKp4-1" source="S2El1OMhgtDXLihTYKp4-7" target="S2El1OMhgtDXLihTYKp4-7" edge="1">
          <mxGeometry width="50" height="50" relative="1" as="geometry">
            <mxPoint x="50" y="103.08600000000001" as="sourcePoint" />
            <mxPoint x="50.960000000000036" y="40.00500000000011" as="targetPoint" />
          </mxGeometry>
        </mxCell>
        <mxCell id="70wU5Ku5420jJ-9fg1Na-2" value="" style="endArrow=ERmandOne;html=1;rounded=0;labelBackgroundColor=none;strokeColor=#d79b00;fontColor=default;startArrow=ERzeroToMany;startFill=0;endFill=0;fontSize=14;fillColor=#ffe6cc;entryX=1.006;entryY=0.12;entryDx=0;entryDy=0;entryPerimeter=0;exitX=-0.002;exitY=0.466;exitDx=0;exitDy=0;exitPerimeter=0;" parent="1" source="4PVSJn8JbAyRpApGVOqt-70" target="4PVSJn8JbAyRpApGVOqt-39" edge="1">
          <mxGeometry width="50" height="50" relative="1" as="geometry">
            <mxPoint x="2159.8" y="6307.72" as="sourcePoint" />
            <mxPoint x="2189.8" y="7136.72" as="targetPoint" />
            <Array as="points">
              <mxPoint x="2159.8" y="6307.72" />
              <mxPoint x="2159.8" y="7137.72" />
            </Array>
          </mxGeometry>
        </mxCell>
      </root>
    </mxGraphModel>
  </diagram>
</mxfile>
